<?xml version="1.0" encoding="UTF-8" standalone="no"?>
<svg
   xmlns:dc="http://purl.org/dc/elements/1.1/"
   xmlns:cc="http://creativecommons.org/ns#"
   xmlns:rdf="http://www.w3.org/1999/02/22-rdf-syntax-ns#"
   xmlns:svg="http://www.w3.org/2000/svg"
   xmlns="http://www.w3.org/2000/svg"
   xmlns:sodipodi="http://sodipodi.sourceforge.net/DTD/sodipodi-0.dtd"
   xmlns:inkscape="http://www.inkscape.org/namespaces/inkscape"
   inkscape:version="1.0 (4035a4fb49, 2020-05-01)"
   sodipodi:docname="a.svg"
   viewBox="0 0 4075 1317"
   height="1317"
   width="4075"
   id="svg830"
   version="1.1">
  <metadata
     id="metadata836">
    <rdf:RDF>
      <cc:Work
         rdf:about="">
        <dc:format>image/svg+xml</dc:format>
        <dc:type
           rdf:resource="http://purl.org/dc/dcmitype/StillImage" />
        <dc:title></dc:title>
      </cc:Work>
    </rdf:RDF>
  </metadata>
  <defs
     id="defs834" />
  <sodipodi:namedview
     inkscape:current-layer="g838"
     inkscape:window-maximized="1"
     inkscape:window-y="27"
     inkscape:window-x="0"
     inkscape:cy="2307.6016"
     inkscape:cx="527.13293"
     inkscape:zoom="0.08"
     showgrid="true"
     id="namedview832"
     inkscape:window-height="715"
     inkscape:window-width="1366"
     inkscape:pageshadow="2"
     inkscape:pageopacity="0"
     guidetolerance="10"
     gridtolerance="10"
     objecttolerance="10"
     borderopacity="1"
     bordercolor="#666666"
     pagecolor="#ffffff">
    <inkscape:grid
       spacingy="25"
       units="px"
       empspacing="6"
       id="grid842"
       type="axonomgrid" />
  </sodipodi:namedview>
  <g
     id="g838"
     inkscape:label="Image"
     inkscape:groupmode="layer">
    <path
       id="path850"
       d="m 1688.7495,1725 -779.42283,450 1428.94193,825 779.4229,-450 z"
       style="fill:#ac9393;stroke:#000000;stroke-width:1px;stroke-linecap:butt;stroke-linejoin:miter;stroke-opacity:1" />
    <path
       id="path852"
       d="m 1818.6533,1800 -779.4228,450 -129.90383,-75 779.42283,-450 z"
       style="fill:#6c5353;stroke:#000000;stroke-width:1px;stroke-linecap:butt;stroke-linejoin:miter;stroke-opacity:1" />
    <path
       id="path854"
       d="m 1299.0381,2100 1299.0381,750 21.6506,-12.5 -1299.0381,-750 z"
       style="fill:#241c1c;stroke:#000000;stroke-width:1px;stroke-linecap:butt;stroke-linejoin:miter;stroke-opacity:1" />
    <path
       id="path856"
       d="m 1299.0381,2100 -259.8076,150 1299.0381,750 259.8076,-150 z"
       style="fill:#483737;stroke:#000000;stroke-width:1px;stroke-linecap:butt;stroke-linejoin:miter;stroke-opacity:1" />
    <path
       id="path858"
       d="m 1818.6533,1800 1299.0382,750 -497.9647,287.5 -1299.0381,-750 z"
       style="fill:#483737;stroke:#000000;stroke-width:1px;stroke-linecap:butt;stroke-linejoin:miter;stroke-opacity:1" />
    <path
       id="path860"
       d="m 1861.9546,1825 -497.9646,287.5 -43.3013,-25 497.9646,-287.5 z"
       style="fill:#6c5353;stroke:#000000;stroke-width:1px;stroke-linecap:butt;stroke-linejoin:miter;stroke-opacity:1" />
    <path
       id="path862"
       d="m 1255.7368,2125 43.3013,-25 1299.0381,750 -43.3013,25 z"
       style="fill:none;stroke:#000000;stroke-width:1px;stroke-linecap:butt;stroke-linejoin:miter;stroke-opacity:1" />
    <path
       id="path866"
       d="m 1840.304,1862.5 c 0,0 21.6506,-12.5 43.3013,0 21.6506,12.5 21.6506,12.5 43.3012,25 21.6507,12.5 0,25 0,25 0,0 -21.6506,12.5 -43.3012,0 -21.6507,-12.5 -43.3013,-25 -43.3013,-25 0,0 -21.6507,-12.5 0,-25 z"
       style="fill:#d40000;stroke:#000000;stroke-width:1px;stroke-linecap:butt;stroke-linejoin:miter;stroke-opacity:1" />
    <path
       id="path868"
       d="m 1948.5572,1925 c 0,0 21.6506,-12.5 43.3012,0 21.6507,12.5 64.9519,37.5 86.6026,50 21.6506,12.5 0,25 0,25 0,0 -21.6507,12.5 -43.3013,0 -21.6506,-12.5 -64.9519,-37.5 -86.6025,-50 -21.6507,-12.5 0,-25 0,-25 z"
       style="fill:#ff6600;stroke:#000000;stroke-width:1px;stroke-linecap:butt;stroke-linejoin:miter;stroke-opacity:1" />
    <path
       id="path872"
       d="m 1818.6533,1925 c 21.6507,-12.5 43.3013,0 43.3013,0 l 129.9038,75 c 0,0 21.6507,12.5 0,25 -21.6506,12.5 -43.3012,0 -43.3012,0 0,0 -108.2532,-62.5 -129.9039,-75 -21.6506,-12.5 0,-25 0,-25 z"
       style="fill:#ffd5d5;stroke:#000000;stroke-width:1px;stroke-linecap:butt;stroke-linejoin:miter;stroke-opacity:1" />
    <path
       id="path874"
       d="m 2013.5091,2037.5 c 0,0 21.6506,-12.5 43.3012,0 21.6507,12.5 151.5545,87.5 151.5545,87.5 0,0 21.6506,12.5 0,25 -21.6507,12.5 -43.3013,0 -43.3013,0 l -151.5544,-87.5 c 0,0 -21.6507,-12.5 0,-25 z"
       style="fill:#ff6600;stroke:#000000;stroke-width:1px;stroke-linecap:butt;stroke-linejoin:miter;stroke-opacity:1" />
    <path
       id="path876"
       d="m 1710.4002,1937.5 c 21.6506,-12.5 43.3012,0 43.3012,0 l 43.3013,25 c 0,0 21.6506,12.5 0,25 -21.6506,12.5 -43.3013,0 -43.3013,0 l -43.3012,-25 c 0,0 -21.6507,-12.5 0,-25 z"
       style="fill:#d40000;stroke:#000000;stroke-width:1px;stroke-linecap:butt;stroke-linejoin:miter;stroke-opacity:1" />
    <path
       style="fill:#d40000;stroke:#000000;stroke-width:1px;stroke-linecap:butt;stroke-linejoin:miter;stroke-opacity:1"
       d="m 1623.7976,1987.5 c 0,0 21.6506,-12.5 43.3013,0 21.6506,12.5 21.6506,12.5 43.3012,25 21.6506,12.5 0,25 0,25 0,0 -21.6506,12.5 -43.3012,0 -21.6507,-12.5 -43.3013,-25 -43.3013,-25 0,0 -21.6507,-12.5 0,-25 z"
       id="path866-3" />
    <path
       d="M 1623.5957 2044.4492 C 1617.0327 2044.3611 1609.5889 2045.7031 1602.1465 2050 C 1602.1465 2050 1580.4959 2062.5 1602.1465 2075 C 1623.7972 2087.5 1732.0508 2150 1732.0508 2150 C 1753.7015 2162.5 1861.9551 2225 1861.9551 2225 C 1861.9551 2225 1883.6053 2237.5 1905.2559 2225 C 1926.9066 2212.5 1905.2559 2200 1905.2559 2200 L 1775.3516 2125 L 1645.4492 2050 C 1645.4492 2050 1636.125 2044.6174 1623.5957 2044.4492 z "
       style="fill:#ffd5d5;stroke:#000000;stroke-width:1px;stroke-linecap:butt;stroke-linejoin:miter;stroke-opacity:1"
       id="path872-6" />
    <path
       style="fill:#ffd5d5;stroke:#000000;stroke-width:1px;stroke-linecap:butt;stroke-linejoin:miter;stroke-opacity:1"
       d="m 1537.1951,2087.5 c 21.6507,-12.5 43.3013,0 43.3013,0 l 129.9039,75 c 0,0 21.6507,12.5 0,25 -21.6506,12.5 -43.3012,0 -43.3012,0 0,0 -108.2533,-62.5 -129.904,-75 -21.6506,-12.5 0,-25 0,-25 z"
       id="path872-5" />
    <path
       style="fill:#ff6600;stroke:#000000;stroke-width:1px;stroke-linecap:butt;stroke-linejoin:miter;stroke-opacity:1"
       d="m 1732.0508,2200 c 0,0 21.6506,-12.5 43.3012,0 21.6507,12.5 64.9519,37.5 86.6026,50 21.6506,12.5 0,25 0,25 0,0 -21.6507,12.5 -43.3013,0 -21.6506,-12.5 -64.9519,-37.5 -86.6025,-50 -21.6507,-12.5 0,-25 0,-25 z"
       id="path868-5" />
    <path
       id="path866-3-6"
       d="m 1428.9419,2097.6475 c 0,0 21.6506,-12.5 43.3013,0 21.6506,12.5 21.6506,12.5 43.3012,25 21.6506,12.5 0,25 0,25 0,0 -21.6506,12.5 -43.3012,0 -21.6507,-12.5 -43.3013,-25 -43.3013,-25 0,0 -21.6507,-12.5 0,-25 z"
       style="fill:#d40000;stroke:#000000;stroke-width:1px;stroke-linecap:butt;stroke-linejoin:miter;stroke-opacity:1" />
    <path
       style="fill:#ac9393;stroke:#000000;stroke-width:1px;stroke-linecap:butt;stroke-linejoin:miter;stroke-opacity:1"
       d="M 779.42286,2250 -3.3594005e-5,2700 1428.9419,3525 2208.3648,3075 Z"
       id="path850-7" />
    <path
       style="fill:#6c5353;stroke:#000000;stroke-width:1px;stroke-linecap:butt;stroke-linejoin:miter;stroke-opacity:1"
       d="M 909.32666,2325 129.90387,2775 -3.3594005e-5,2700 779.42286,2250 Z"
       id="path852-4" />
    <path
       sodipodi:nodetypes="ccccc"
       style="fill:#483737;stroke:#000000;stroke-width:1px;stroke-linecap:butt;stroke-linejoin:miter;stroke-opacity:1"
       d="M 909.32666,2325 2208.3648,3075 1428.9419,3525 129.90381,2775 Z"
       id="path858-0" />
    <path
       d="M 909.5293 2356.9492 C 896.99997 2357.1174 887.67578 2362.5 887.67578 2362.5 L 844.375 2387.5 C 844.375 2387.5 822.72436 2400 844.375 2412.5 C 866.02563 2425 1450.5918 2762.5 1450.5918 2762.5 C 1472.2424 2775 2056.8105 3112.5 2056.8105 3112.5 C 2056.8105 3112.5 2078.4607 3125 2100.1113 3112.5 C 2121.762 3100 2143.4121 3087.5 2143.4121 3087.5 C 2143.4121 3087.5 2165.0627 3075 2143.4121 3062.5 C 2121.7615 3050 1558.8459 2725 1537.1953 2712.5 C 1515.5447 2700 952.62719 2375 930.97656 2362.5 C 923.53416 2358.2031 916.09228 2356.8611 909.5293 2356.9492 z "
       style="fill:#ff7f2a;stroke:#000000;stroke-width:1px;stroke-linecap:butt;stroke-linejoin:miter;stroke-opacity:1"
       id="path4397" />
    <path
       id="path4401"
       d="m 887.67604,2387.5 c 21.65063,-12.5 43.30127,0 43.30127,0 0,0 0,0 21.65063,12.5 21.65064,12.5 0,25 0,25 0,0 -21.65063,12.5 -43.30127,0 -21.65063,-12.5 -21.65063,-12.5 -21.65063,-12.5 0,0 -21.65064,-12.5 0,-25 z"
       style="fill:#e3dbdb;stroke:#000000;stroke-width:1px;stroke-linecap:butt;stroke-linejoin:miter;stroke-opacity:1" />
    <path
       id="path4403"
       d="m 974.27858,2437.5 c 0,0 21.65063,-12.5 43.30122,0 21.6507,12.5 129.9039,75 151.5545,87.5 21.6506,12.5 0,25 0,25 0,0 -21.6506,12.5 -43.3013,0 -21.6506,-12.5 -151.55442,-87.5 -151.55442,-87.5 0,0 -21.65064,-12.5 0,-25 z"
       style="fill:#e3dbdb;stroke:#000000;stroke-width:1px;stroke-linecap:butt;stroke-linejoin:miter;stroke-opacity:1" />
    <path
       id="path4405"
       d="m 2100.1116,3087.5 c 21.6507,-12.5 0,-25 0,-25 0,0 -21.6506,-12.5 -43.3012,0 -21.6507,12.5 0,25 0,25 0,0 21.6506,12.5 43.3012,0 z"
       style="fill:#e3dbdb;stroke:#000000;stroke-width:1px;stroke-linecap:butt;stroke-linejoin:miter;stroke-opacity:1" />
    <path
       d="M 801.27539 2419.4492 C 788.74606 2419.6174 779.42383 2425 779.42383 2425 L 714.4707 2462.5 L 1320.6895 2812.5 L 1363.9902 2837.5 L 1970.207 3187.5 L 2035.1602 3150 C 2035.1602 3150 2056.8109 3137.5 2035.1602 3125 C 2013.5096 3112.5 1450.592 2787.5 1428.9414 2775 C 1407.2908 2762.5 844.37525 2437.5 822.72461 2425 C 815.28221 2420.7031 807.83837 2419.3611 801.27539 2419.4492 z "
       style="fill:#ff7f2a;stroke:#000000;stroke-width:1px;stroke-linecap:butt;stroke-linejoin:miter;stroke-opacity:1"
       id="path4407" />
    <path
       style="fill:#e3dbdb;stroke:#000000;stroke-width:1px;stroke-linecap:butt;stroke-linejoin:miter;stroke-opacity:1"
       d="m 779.42286,2450 c 21.65063,-12.5 43.30127,0 43.30127,0 0,0 0,0 21.65063,12.5 21.65064,12.5 0,25 0,25 0,0 -21.65063,12.5 -43.30127,0 -21.65063,-12.5 -21.65063,-12.5 -21.65063,-12.5 0,0 -21.65064,-12.5 0,-25 z"
       id="path4401-6" />
    <path
       style="fill:#e3dbdb;stroke:#000000;stroke-width:1px;stroke-linecap:butt;stroke-linejoin:miter;stroke-opacity:1"
       d="m 866.0254,2500 c 0,0 21.65063,-12.5 43.30122,0 21.6507,12.5 129.90388,75 151.55448,87.5 21.6506,12.5 0,25 0,25 0,0 -21.6506,12.5 -43.3013,0 C 995.92919,2600 866.0254,2525 866.0254,2525 c 0,0 -21.65064,-12.5 0,-25 z"
       id="path4403-8" />
    <path
       style="fill:#6c5353;stroke:#000000;stroke-width:1px;stroke-linecap:butt;stroke-linejoin:miter;stroke-opacity:1"
       d="m 1991.8584,3150 c 21.6507,-12.5 0,-25 0,-25 0,0 -21.6506,-12.5 -43.3012,0 -21.6507,12.5 0,25 0,25 0,0 21.6506,12.5 43.3012,0 z"
       id="path4405-9" />
    <path
       d="M 714.4707 2462.5 L 627.86914 2512.5 L 1234.0859 2862.5 L 1277.3867 2887.5 L 1883.6055 3237.5 L 1970.207 3187.5 L 1363.9902 2837.5 L 1320.6895 2812.5 L 714.4707 2462.5 z "
       style="fill:#ff6600;stroke:#000000;stroke-width:1px;stroke-linecap:butt;stroke-linejoin:miter;stroke-opacity:1"
       id="path4456" />
    <path
       id="path4458"
       d="m 1905.2559,3200 c 21.6506,-12.5 0,-25 0,-25 0,0 -21.6506,-12.5 -43.3013,0 -21.6506,12.5 0,25 0,25 0,0 21.6507,12.5 43.3013,0 z"
       style="fill:#e3dbdb;stroke:#000000;stroke-width:1px;stroke-linecap:butt;stroke-linejoin:miter;stroke-opacity:1" />
    <path
       id="path4462"
       d="m 692.82032,2500 c 21.65064,-12.5 43.30127,0 43.30127,0 l 108.25318,62.5 c 0,0 21.65063,12.5 0,25 -21.65064,12.5 -43.30127,0 -43.30127,0 0,0 -86.60254,-50 -108.25318,-62.5 -21.65063,-12.5 0,-25 0,-25 z"
       style="fill:#e3dbdb;stroke:#000000;stroke-width:1px;stroke-linecap:butt;stroke-linejoin:miter;stroke-opacity:1" />
    <path
       d="M 627.86914 2512.5 L 541.26562 2562.5 L 1147.4844 2912.5 L 1190.7852 2937.5 L 1797.002 3287.5 L 1883.6055 3237.5 L 1277.3867 2887.5 L 1234.0859 2862.5 L 627.86914 2512.5 z "
       style="fill:#ff6600;stroke:#000000;stroke-width:1px;stroke-linecap:butt;stroke-linejoin:miter;stroke-opacity:1"
       id="path4456-2" />
    <path
       style="fill:#e3dbdb;stroke:#000000;stroke-width:1px;stroke-linecap:butt;stroke-linejoin:miter;stroke-opacity:1"
       d="m 606.21778,2550 c 21.65064,-12.5 43.30127,0 43.30127,0 l 108.25319,62.5 c 0,0 21.6506,12.5 0,25 -21.6507,12.5 -43.30128,0 -43.30128,0 0,0 -86.60254,-50 -108.25318,-62.5 -21.65063,-12.5 0,-25 0,-25 z"
       id="path4462-6" />
    <path
       d="M 454.66406 2612.5 C 454.66406 2612.5 411.36158 2637.5 389.71094 2650 C 368.06031 2662.5 389.71094 2675 389.71094 2675 L 995.92969 3025 L 1602.1465 3375 C 1602.1465 3375 1623.7986 3387.5 1645.4492 3375 C 1667.0999 3362.5 1710.4004 3337.5 1710.4004 3337.5 L 1104.1816 2987.5 L 1060.8809 2962.5 L 454.66406 2612.5 z "
       style="fill:#ff2a2a;stroke:#000000;stroke-width:1px;stroke-linecap:butt;stroke-linejoin:miter;stroke-opacity:1"
       id="path4485" />
    <path
       d="M 541.26562 2562.5 L 454.66406 2612.5 L 1060.8809 2962.5 L 1104.1816 2987.5 L 1710.4004 3337.5 L 1797.002 3287.5 L 1190.7852 2937.5 L 1147.4844 2912.5 L 541.26562 2562.5 z "
       style="fill:#ff2a2a;stroke:#000000;stroke-width:1px;stroke-linecap:butt;stroke-linejoin:miter;stroke-opacity:1"
       id="path4487" />
    <path
       style="fill:#e3dbdb;stroke:#000000;stroke-width:1px;stroke-linecap:butt;stroke-linejoin:miter;stroke-opacity:1"
       d="m 1732.0508,3300 c 21.6506,-12.5 0,-25 0,-25 0,0 -21.6506,-12.5 -43.3013,0 -21.6506,12.5 0,25 0,25 0,0 21.6507,12.5 43.3013,0 z"
       id="path4458-4" />
    <path
       style="fill:#e3dbdb;stroke:#000000;stroke-width:1px;stroke-linecap:butt;stroke-linejoin:miter;stroke-opacity:1"
       d="m 519.61524,2600 c 21.65064,-12.5 43.30127,0 43.30127,0 l 108.25318,62.5 c 0,0 21.65063,12.5 0,25 -21.65064,12.5 -43.30127,0 -43.30127,0 0,0 -86.60254,-50 -108.25318,-62.5 -21.65063,-12.5 0,-25 0,-25 z"
       id="path4462-9" />
    <path
       id="path4462-6-5"
       d="m 433.0127,2650 c 21.65064,-12.5 43.30127,0 43.30127,0 l 108.25319,62.5 c 0,0 21.6506,12.5 0,25 -21.6507,12.5 -43.30128,0 -43.30128,0 0,0 -86.60254,-50 -108.25318,-62.5 -21.65063,-12.5 0,-25 0,-25 z"
       style="fill:#e3dbdb;stroke:#000000;stroke-width:1px;stroke-linecap:butt;stroke-linejoin:miter;stroke-opacity:1" />
    <path
       d="M 346.61328 2681.9492 C 334.08395 2682.1174 324.75977 2687.5 324.75977 2687.5 L 281.45898 2712.5 C 281.45898 2712.5 259.80834 2725 281.45898 2737.5 C 303.10961 2750 887.67578 3087.5 887.67578 3087.5 C 909.32641 3100 1493.8945 3437.5 1493.8945 3437.5 C 1493.8945 3437.5 1515.5447 3450 1537.1953 3437.5 L 1580.4961 3412.5 C 1580.4961 3412.5 1602.1467 3400 1580.4961 3387.5 C 1558.8454 3375 995.92994 3050 974.2793 3037.5 C 952.6287 3025 389.71119 2700 368.06055 2687.5 C 360.61814 2683.2031 353.17626 2681.8611 346.61328 2681.9492 z "
       style="fill:#ff2a2a;stroke:#000000;stroke-width:1px;stroke-linecap:butt;stroke-linejoin:miter;stroke-opacity:1"
       id="path4397-0" />
    <path
       style="fill:#e3dbdb;stroke:#000000;stroke-width:1px;stroke-linecap:butt;stroke-linejoin:miter;stroke-opacity:1"
       d="m 324.75952,2712.5 c 21.65063,-12.5 43.30127,0 43.30127,0 0,0 0,0 21.65064,12.5 21.65064,12.5 0,25 0,25 0,0 -21.65064,12.5 -43.30128,0 -21.65063,-12.5 -21.65063,-12.5 -21.65063,-12.5 0,0 -21.65064,-12.5 0,-25 z"
       id="path4401-4" />
    <path
       style="fill:#e3dbdb;stroke:#000000;stroke-width:1px;stroke-linecap:butt;stroke-linejoin:miter;stroke-opacity:1"
       d="m 411.36207,2762.5 c 0,0 21.65063,-12.5 43.30122,0 21.6507,12.5 129.90392,75 151.55452,87.5 21.6506,12.5 0,25 0,25 0,0 -21.6506,12.5 -43.3013,0 -21.6506,-12.5 -151.55444,-87.5 -151.55444,-87.5 0,0 -21.65064,-12.5 0,-25 z"
       id="path4403-87" />
    <path
       style="fill:#e3dbdb;stroke:#000000;stroke-width:1px;stroke-linecap:butt;stroke-linejoin:miter;stroke-opacity:1"
       d="m 1537.1951,3412.5 c 21.6507,-12.5 0,-25 0,-25 0,0 -21.6506,-12.5 -43.3012,0 -21.6507,12.5 0,25 0,25 0,0 21.6506,12.5 43.3012,0 z"
       id="path4405-1" />
    <path
       id="path852-4-9"
       d="m 3.2270538e-5,2849.9999 -779.422792270538,450 -129.9039,-75 779.42289,-450 z"
       style="fill:#6c5353;stroke:#000000;stroke-width:1px;stroke-linecap:butt;stroke-linejoin:miter;stroke-opacity:1" />
    <path
       id="path858-0-0"
       d="M 3.2270538e-5,2849.9999 1299.0381,3599.9999 519.61524,4050 -779.42282,3299.9999 Z"
       style="fill:#483737;stroke:#000000;stroke-width:1px;stroke-linecap:butt;stroke-linejoin:miter;stroke-opacity:1"
       sodipodi:nodetypes="ccccc" />
    <path
       id="path4673"
       d="m 238.15699,3037.5 c 21.65064,-12.5 43.30127,0 43.30127,0 0,0 151.55445,87.5 173.20508,100 21.65064,12.5 0,25 0,25 0,0 -21.65063,12.5 -43.30127,25 -21.65063,12.5 -43.30127,0 -43.30127,0 l -173.20508,-100 c 0,0 -21.65063,-12.5 0,-25 21.65064,-12.5 43.30127,-25 43.30127,-25 z"
       style="fill:#e3dbdb;stroke:#000000;stroke-width:1px;stroke-linecap:butt;stroke-linejoin:miter;stroke-opacity:1" />
    <path
       d="m 519.41285,3181.9492 c -6.56298,-0.088 -14.00486,1.2539 -21.44727,5.5508 0,0 -21.65209,12.5 -43.30273,25 -21.65063,12.5 0,25 0,25 l 173.20508,100 173.20507,100 c 0,0 21.65211,12.5 43.30274,0 21.65064,-12.5 43.30085,-25 43.30085,-25 0,0 21.6506,-12.5 0,-25 -21.6507,-12.5 -173.20515,-100 -173.20515,-100 -21.65063,-12.5 -173.20508,-100 -173.20508,-100 0,0 -9.32419,-5.3826 -21.85351,-5.5508 z"
       style="fill:#e3dbdb;stroke:#000000;stroke-width:1px;stroke-linecap:butt;stroke-linejoin:miter;stroke-opacity:1"
       id="path4673-9" />
    <path
       id="path4706"
       d="m -129.90381,2950 c 21.65063,-12.5 43.301269,0 43.301269,0 0,0 216.506351,125 238.156981,137.5 21.65064,12.5 0,25 0,25 0,0 -21.65063,12.5 -43.30127,0 C 86.602539,3100 -129.90381,2975 -129.90381,2975 c 0,0 -16.30898,-9.416 0,-25 z"
       style="fill:#f4d7d7;stroke:#000000;stroke-width:1px;stroke-linecap:butt;stroke-linejoin:miter;stroke-opacity:1" />
    <path
       d="M 194.65234 3119.4492 C 188.08936 3119.3611 180.64748 3120.7031 173.20508 3125 C 156.8961 3140.584 173.20508 3150 173.20508 3150 C 173.20508 3150 275.61864 3209.1285 346.41016 3250 C 372.95675 3265.3267 405.45665 3284.0909 411.36133 3287.5 C 411.36389 3287.5015 411.36658 3287.5024 411.36914 3287.5039 C 475.0054 3324.2443 568.82114 3378.4095 584.56641 3387.5 C 606.21705 3400 627.86914 3387.5 627.86914 3387.5 C 627.86914 3387.5 649.51978 3375 627.86914 3362.5 C 612.12453 3353.4098 518.31592 3299.2493 454.67773 3262.5078 C 454.67272 3262.5049 454.66907 3262.5029 454.66406 3262.5 C 448.75928 3259.0909 416.25817 3240.3271 389.71094 3225 C 318.91931 3184.1284 216.50586 3125 216.50586 3125 C 216.50586 3125 207.18167 3119.6174 194.65234 3119.4492 z "
       style="fill:#f4d7d7;stroke:#000000;stroke-width:1px;stroke-linecap:butt;stroke-linejoin:miter;stroke-opacity:1"
       id="path4706-7" />
    <path
       style="fill:#f4d7d7;stroke:#000000;stroke-width:1px;stroke-linecap:butt;stroke-linejoin:miter;stroke-opacity:1"
       d="m 649.51905,3400 c 21.65063,-12.5 43.30127,0 43.30127,0 0,0 216.50637,125 238.157,137.5 21.65064,12.5 0,25 0,25 0,0 -21.65063,12.5 -43.30127,0 -21.65063,-12.5 -238.157,-137.5 -238.157,-137.5 0,0 -16.30898,-9.416 0,-25 z"
       id="path4706-7-7-1" />
    <path
       d="M -173.4082 2981.9492 C -179.97119 2981.8611 -187.41306 2983.2031 -194.85547 2987.5 C -211.16445 3003.084 -194.85547 3012.5 -194.85547 3012.5 C -194.85547 3012.5 -137.43918 3045.6506 -86.611328 3074.9961 C -86.611268 3074.9961 -86.603516 3075 -86.603516 3075 L 21.650391 3137.5 C 26.530277 3140.3174 41.332554 3148.8636 43.300781 3150 C 43.301557 3150.0004 43.301958 3150.0015 43.302734 3150.002 L 151.55469 3212.5 C 173.20533 3225 194.85547 3212.5 194.85547 3212.5 C 194.85547 3212.5 216.50611 3200 194.85547 3187.5 C 185.01557 3181.8189 138.33722 3154.8684 86.617188 3125.0078 C 86.610671 3125.0041 86.610032 3125.0038 86.603516 3125 C 74.793883 3118.1817 17.697159 3085.2163 -43.302734 3049.998 C -94.134104 3020.6505 -151.55469 2987.5 -151.55469 2987.5 C -151.55469 2987.5 -160.87887 2982.1174 -173.4082 2981.9492 z "
       style="fill:#f4d7d7;stroke:#000000;stroke-width:1px;stroke-linecap:butt;stroke-linejoin:miter;stroke-opacity:1"
       id="path4706-7-7-1-1" />
    <path
       id="path4706-7-7-1-1-5-9"
       d="m 238.15699,3237.5 c 21.65064,-12.5 43.30128,0 43.30128,0 0,0 216.50638,125 238.15701,137.5 21.65064,12.5 0,25 0,25 0,0 -21.65063,12.5 -43.30127,0 -21.65064,-12.5 -238.15702,-137.5 -238.15702,-137.5 0,0 -16.30898,-9.416 0,-25 z"
       style="fill:#f4d7d7;stroke:#000000;stroke-width:1px;stroke-linecap:butt;stroke-linejoin:miter;stroke-opacity:1" />
    <path
       d="M 584.36523 3419.4492 C 577.80225 3419.3611 570.35842 3420.7031 562.91602 3425 C 546.60704 3440.584 562.91602 3450 562.91602 3450 L 627.86914 3487.5 L 801.07422 3587.5 L 866.02539 3625 C 887.67603 3637.5 909.32617 3625 909.32617 3625 C 909.32617 3625 912.89984 3622.9363 915.69141 3619.6484 C 916.12088 3619.1426 916.53159 3618.6076 916.9082 3618.0469 C 917.09651 3617.7665 917.27617 3617.4805 917.44531 3617.1875 C 917.95275 3616.3086 918.36528 3615.375 918.62891 3614.3965 C 918.80466 3613.7442 918.91366 3613.0717 918.94141 3612.3828 C 918.99691 3611.0049 918.72484 3609.56 917.99805 3608.0723 C 917.63465 3607.3284 917.15733 3606.5747 916.55078 3605.8125 C 915.33793 3604.2884 913.60767 3602.7325 911.23242 3601.1719 C 911.23198 3601.1716 911.23091 3601.1722 911.23047 3601.1719 C 910.63648 3600.7816 910.00275 3600.3906 909.32617 3600 C 903.42225 3596.5914 870.92439 3577.8296 844.38281 3562.5059 C 844.38034 3562.5044 844.3787 3562.5034 844.37695 3562.502 C 844.37601 3562.5014 844.37594 3562.5005 844.375 3562.5 C 828.62905 3553.4091 734.80415 3499.2392 671.16992 3462.5 C 647.30729 3448.7229 606.21875 3425 606.21875 3425 C 606.21875 3425 596.89456 3419.6174 584.36523 3419.4492 z "
       style="fill:#f4d7d7;stroke:#000000;stroke-width:1px;stroke-linecap:butt;stroke-linejoin:miter;stroke-opacity:1"
       id="path4706-7-7-1-1-5-9-7" />
    <path
       style="fill:#f4d7d7;stroke:#000000;stroke-width:1px;stroke-linecap:butt;stroke-linejoin:miter;stroke-opacity:1"
       d="m -259.80762,3025 c 21.65063,-12.5 43.30126,0 43.30126,0 0,0 216.506359977848489,125 238.15699,137.5 21.65064,12.5 0,25 0,25 0,0 -21.650630022151489,12.5 -43.30127,0 C -43.30127,3175 -259.80762,3050 -259.80762,3050 c 0,0 -16.30898,-9.416 0,-25 z"
       id="path4706-73" />
    <path
       id="path4706-7-6"
       style="fill:#f4d7d7;stroke:#000000;stroke-width:1px;stroke-linecap:butt;stroke-linejoin:miter;stroke-opacity:1"
       d="m 64.74853,3194.4492 c -6.56298,-0.088 -14.00486,1.2539 -21.44726,5.5508 -16.30898,15.584 0,25 0,25 0,0 102.41356,59.1285 173.20508,100 26.54659,15.3267 59.04649,34.0909 64.95117,37.5 0.003,0 0.005,0 0.008,0 63.63626,36.7404 157.452,90.9056 173.19727,99.9961 21.65064,12.5 43.30273,0 43.30273,0 0,0 21.65064,-12.5 0,-25 -15.74461,-9.0902 -109.55322,-63.2507 -173.19141,-99.9922 -0.005,0 -0.009,0 -0.0137,-0.01 -5.90478,-3.4091 -38.40589,-22.1729 -64.95312,-37.5 -70.79163,-40.8716 -173.20508,-100 -173.20508,-100 0,0 -9.32419,-5.3826 -21.85352,-5.5508 z" />
    <path
       id="path4706-7-7-1-5"
       d="m 519.61524,3475 c 21.65063,-12.5 43.30127,0 43.30127,0 0,0 216.50638,125 238.15698,137.5 21.6507,12.5 0,25 0,25 0,0 -21.6506,12.5 -43.3013,0 C 736.12159,3625 519.61524,3500 519.61524,3500 c 0,0 -16.30898,-9.416 0,-25 z"
       style="fill:#f4d7d7;stroke:#000000;stroke-width:1px;stroke-linecap:butt;stroke-linejoin:miter;stroke-opacity:1" />
    <path
       id="path4706-7-7-1-1-6"
       style="fill:#f4d7d7;stroke:#000000;stroke-width:1px;stroke-linecap:butt;stroke-linejoin:miter;stroke-opacity:1"
       d="m -303.31315,3056.9514 c -6.56299,-0.088 -14.00486,1.2539 -21.44727,5.5508 -16.30898,15.584 0,25 0,25 0,0 57.41629,33.1506 108.24414,62.4961 6e-5,0 0.008,0 0.008,0 l 108.25391,62.5 c 4.87988,2.8174 19.68216,11.3636 21.65039,12.5 7.7e-4,4e-4 0.001,0 0.002,0 l 108.25192,62.5039 c 21.65064,12.5 43.30078,0 43.30078,0 0,0 21.650636,-12.5 0,-25 -9.8399,-5.6811 -56.5182502,-32.6316 -108.23829,-62.4922 -0.006,0 -0.007,0 -0.0137,-0.01 -11.80963,-6.8183 -68.90635,-39.7837 -129.90625,-75.002 -50.83154,-29.3475 -108.25212,-62.498 -108.25212,-62.498 0,0 -9.32418,-5.3826 -21.85351,-5.5508 z" />
    <path
       style="fill:#f4d7d7;stroke:#000000;stroke-width:1px;stroke-linecap:butt;stroke-linejoin:miter;stroke-opacity:1"
       d="m 108.25204,3312.5022 c 21.65064,-12.5 43.30128,0 43.30128,0 0,0 216.50638,125 238.15701,137.5 21.65064,12.5 0,25 0,25 0,0 -21.65063,12.5 -43.30127,0 -21.65064,-12.5 -238.15702,-137.5 -238.15702,-137.5 0,0 -16.308984,-9.416 0,-25 z"
       id="path4706-7-7-1-1-5-9-3" />
    <path
       id="path4706-7-7-1-1-5-9-7-9"
       style="fill:#f4d7d7;stroke:#000000;stroke-width:1px;stroke-linecap:butt;stroke-linejoin:miter;stroke-opacity:1"
       d="m 454.46028,3494.4514 c -6.56298,-0.088 -14.00681,1.2539 -21.44921,5.5508 -16.30898,15.584 0,25 0,25 l 64.95312,37.5 173.2051,100 64.9511,37.5 c 21.6507,12.5 43.3008,0 43.3008,0 0,0 3.5737,-2.0637 6.3653,-5.3516 0.4294,-0.5058 0.8401,-1.0408 1.2168,-1.6015 0.1883,-0.2804 0.3679,-0.5664 0.5371,-0.8594 0.5074,-0.8789 0.9199,-1.8125 1.1836,-2.791 0.1757,-0.6523 0.2847,-1.3248 0.3125,-2.0137 0.055,-1.3779 -0.2166,-2.8228 -0.9434,-4.3105 -0.3634,-0.7439 -0.8407,-1.4976 -1.4473,-2.2598 -1.2128,-1.5241 -2.9431,-3.08 -5.3183,-4.6406 -5e-4,-3e-4 0,3e-4 0,0 -0.594,-0.3903 -1.2277,-0.7813 -1.9043,-1.1719 -5.9039,-3.4086 -38.4018,-22.1704 -64.9434,-37.4941 0,0 0,0 -0.01,0 -9e-4,-6e-4 -10e-4,0 0,0 -15.7459,-9.0909 -109.57083,-63.2608 -173.20506,-100 -23.86263,-13.7771 -64.95117,-37.5 -64.95117,-37.5 0,0 -9.32419,-5.3826 -21.85352,-5.5508 z" />
    <path
       style="fill:#f4d7d7;stroke:#000000;stroke-width:1px;stroke-linecap:butt;stroke-linejoin:miter;stroke-opacity:1"
       d="m -433.01107,3124.9978 c 21.65063,-12.5 43.30127,0 43.30127,0 0,0 216.50635,125 238.15698,137.5 21.65064,12.5 0,25 0,25 0,0 -21.65063,12.5 -43.30127,0 -21.65063,-12.5 -238.15698,-137.5 -238.15698,-137.5 0,0 -16.30898,-9.416 0,-25 z"
       id="path4706-4" />
    <path
       id="path4706-7-8"
       style="fill:#f4d7d7;stroke:#000000;stroke-width:1px;stroke-linecap:butt;stroke-linejoin:miter;stroke-opacity:1"
       d="m -108.45492,3294.447 c -6.56298,-0.088 -14.00486,1.2539 -21.44726,5.5508 -16.30898,15.584 0,25 0,25 0,0 102.413561,59.1285 173.205081,100 26.54659,15.3267 59.046489,34.0909 64.951169,37.5 0.003,0 0.005,0 0.008,0 63.63626,36.7404 157.452,90.9056 173.19727,99.9961 21.65064,12.5 43.30273,0 43.30273,0 0,0 21.65064,-12.5 0,-25 -15.74461,-9.0902 -109.55322,-63.2507 -173.19141,-99.9922 -0.005,0 -0.009,0 -0.0137,-0.01 -5.90478,-3.4091 -38.40589,-22.1729 -64.953119,-37.5 -70.79163,-40.8716 -173.20508,-100 -173.20508,-100 0,0 -9.32419,-5.3826 -21.853521,-5.5508 z" />
    <path
       id="path4706-7-7-1-12"
       d="m 346.41179,3574.9978 c 21.65064,-12.5 43.30124,0 43.30124,0 0,0 216.50639,125 238.15699,137.5 21.6507,12.5 0,25 0,25 0,0 -21.6506,12.5 -43.3012,0 -21.6507,-12.5 -238.15703,-137.5 -238.15703,-137.5 0,0 -16.30898,-9.416 0,-25 z"
       style="fill:#f4d7d7;stroke:#000000;stroke-width:1px;stroke-linecap:butt;stroke-linejoin:miter;stroke-opacity:1" />
    <path
       id="path4706-7-7-1-1-9"
       style="fill:#f4d7d7;stroke:#000000;stroke-width:1px;stroke-linecap:butt;stroke-linejoin:miter;stroke-opacity:1"
       d="m -476.51546,3156.947 c -6.56299,-0.088 -14.00486,1.2539 -21.44727,5.5508 -16.30898,15.584 0,25 0,25 0,0 57.41629,33.1506 108.24414,62.4961 6e-5,0 0.008,0 0.008,0 l 108.25391,62.5 c 4.87988,2.8174 19.68216,11.3636 21.65039,12.5 7.7e-4,4e-4 10e-4,0 0.002,0 l 108.25192,62.5039 c 21.65064,12.5 43.30078,0 43.30078,0 0,0 21.650641,-12.5 0,-25 -9.8399,-5.6811 -56.51825,-32.6316 -108.23829,-62.4922 -0.006,0 -0.007,0 -0.0137,-0.01 -11.80963,-6.8183 -68.90635,-39.7837 -129.90625,-75.002 -50.83154,-29.3475 -108.25212,-62.498 -108.25212,-62.498 0,0 -9.32418,-5.3826 -21.85351,-5.5508 z" />
    <path
       style="fill:#f4d7d7;stroke:#000000;stroke-width:1px;stroke-linecap:butt;stroke-linejoin:miter;stroke-opacity:1"
       d="m -64.950269,3412.4978 c 21.65064,-12.5 43.30128,0 43.30128,0 0,0 216.506379,125 238.157009,137.5 21.65064,12.5 0,25 0,25 0,0 -21.65063,12.5 -43.30127,0 -21.65064,-12.5 -238.157019,-137.5 -238.157019,-137.5 0,0 -16.30898,-9.416 0,-25 z"
       id="path4706-7-7-1-1-5-9-39" />
    <path
       id="path4706-7-7-1-1-5-9-7-0"
       style="fill:#f4d7d7;stroke:#000000;stroke-width:1px;stroke-linecap:butt;stroke-linejoin:miter;stroke-opacity:1"
       d="m 281.25797,3594.447 c -6.56298,-0.088 -14.00681,1.2539 -21.44921,5.5508 -16.30898,15.584 0,25 0,25 l 64.95312,37.5 173.20504,100 64.9512,37.5 c 21.6506,12.5 43.3008,0 43.3008,0 0,0 3.5736,-2.0637 6.3652,-5.3516 0.4295,-0.5058 0.8402,-1.0408 1.2168,-1.6015 0.1883,-0.2804 0.368,-0.5664 0.5371,-0.8594 0.5075,-0.8789 0.92,-1.8125 1.1836,-2.791 0.1758,-0.6523 0.2848,-1.3248 0.3125,-2.0137 0.055,-1.3779 -0.2166,-2.8228 -0.9433,-4.3105 -0.3634,-0.7439 -0.8408,-1.4976 -1.4473,-2.2598 -1.2129,-1.5241 -2.9431,-3.08 -5.3184,-4.6406 -4e-4,-3e-4 0,3e-4 0,0 -0.594,-0.3903 -1.2277,-0.7813 -1.9043,-1.1719 -5.9039,-3.4086 -38.4018,-22.1704 -64.9433,-37.4941 0,0 0,0 -0.01,0 -10e-4,-6e-4 -10e-4,0 0,0 -15.746,-9.0909 -109.57089,-63.2608 -173.20509,-100 -23.86264,-13.7771 -64.95118,-37.5 -64.95118,-37.5 0,0 -9.32419,-5.3826 -21.85352,-5.5508 z" />
    <path
       id="path4706-73-8"
       d="m -562.91488,3199.9978 c 21.65063,-12.5 43.30126,0 43.30126,0 0,0 216.50636,125 238.15699,137.5 21.65064,12.5 0,25 0,25 0,0 -21.65063,12.5 -43.30127,0 -21.65063,-12.5 -238.15698,-137.5 -238.15698,-137.5 0,0 -16.30898,-9.416 0,-25 z"
       style="fill:#f4d7d7;stroke:#000000;stroke-width:1px;stroke-linecap:butt;stroke-linejoin:miter;stroke-opacity:1" />
    <path
       d="m -238.35873,3369.447 c -6.56298,-0.088 -14.00486,1.2539 -21.44726,5.5508 -16.30898,15.584 0,25 0,25 0,0 102.41356,59.1285 173.205081,100 26.54659,15.3267 59.04649,34.0909 64.95117,37.5 0.003,0 0.005,0 0.008,0 63.63626,36.7404 157.451999,90.9056 173.197269,99.9961 21.65064,12.5 43.30273,0 43.30273,0 0,0 21.65064,-12.5 0,-25 -15.74461,-9.0902 -109.553219,-63.2507 -173.191409,-99.9922 -0.005,0 -0.009,0 -0.0137,-0.01 -5.90478,-3.4091 -38.40589,-22.1729 -64.95312,-37.5 -70.791631,-40.8716 -173.205081,-100 -173.205081,-100 0,0 -9.32419,-5.3826 -21.85352,-5.5508 z"
       style="fill:#f4d7d7;stroke:#000000;stroke-width:1px;stroke-linecap:butt;stroke-linejoin:miter;stroke-opacity:1"
       id="path4706-7-6-8" />
    <path
       style="fill:#f4d7d7;stroke:#000000;stroke-width:1px;stroke-linecap:butt;stroke-linejoin:miter;stroke-opacity:1"
       d="m 216.50798,3649.9978 c 21.65063,-12.5 43.30127,0 43.30127,0 0,0 216.50637,125 238.15697,137.5 21.6507,12.5 0,25 0,25 0,0 -21.6506,12.5 -43.3013,0 -21.65059,-12.5 -238.15694,-137.5 -238.15694,-137.5 0,0 -16.30898,-9.416 0,-25 z"
       id="path4706-7-7-1-5-5" />
    <path
       d="m -606.42041,3231.9492 c -6.56299,-0.088 -14.00486,1.2539 -21.44727,5.5508 -16.30898,15.584 0,25 0,25 0,0 57.41629,33.1506 108.24414,62.4961 6e-5,0 0.008,0 0.008,0 l 108.25391,62.5 c 4.87988,2.8174 19.68216,11.3636 21.65039,12.5 7.7e-4,4e-4 10e-4,0 0.002,0 l 108.25192,62.5039 c 21.65064,12.5 43.30078,0 43.30078,0 0,0 21.65063,-12.5 0,-25 -9.8399,-5.6811 -56.51825,-32.6316 -108.23829,-62.4922 -0.006,0 -0.007,0 -0.0137,-0.01 -11.80963,-6.8183 -68.90635,-39.7837 -129.90625,-75.002 -50.83154,-29.3475 -108.25212,-62.498 -108.25212,-62.498 0,0 -9.32418,-5.3826 -21.85351,-5.5508 z"
       style="fill:#f4d7d7;stroke:#000000;stroke-width:1px;stroke-linecap:butt;stroke-linejoin:miter;stroke-opacity:1"
       id="path4706-7-7-1-1-6-0" />
    <path
       id="path4706-7-7-1-1-5-9-3-9"
       d="m -194.85522,3487.5 c 21.65064,-12.5 43.30128,0 43.30128,0 0,0 216.506381,125 238.157011,137.5 21.650639,12.5 0,25 0,25 0,0 -21.65063,12.5 -43.30127,0 -21.65064,-12.5 -238.157021,-137.5 -238.157021,-137.5 0,0 -16.30899,-9.416 0,-25 z"
       style="fill:#f4d7d7;stroke:#000000;stroke-width:1px;stroke-linecap:butt;stroke-linejoin:miter;stroke-opacity:1" />
    <path
       d="m 151.35302,3669.4492 c -6.56298,-0.088 -14.00681,1.2539 -21.44921,5.5508 -16.30898,15.584 0,25 0,25 l 64.95312,37.5 173.2051,100 64.9511,37.5 c 21.65069,12.5 43.30079,0 43.30079,0 0,0 3.5737,-2.0637 6.3653,-5.3516 0.4294,-0.5058 0.8401,-1.0408 1.2168,-1.6015 0.1883,-0.2804 0.3679,-0.5664 0.5371,-0.8594 0.5074,-0.8789 0.9199,-1.8125 1.1836,-2.791 0.1757,-0.6523 0.2847,-1.3248 0.3125,-2.0137 0.055,-1.3779 -0.2166,-2.8228 -0.9434,-4.3105 -0.3634,-0.7439 -0.8407,-1.4976 -1.4473,-2.2598 -1.2128,-1.5241 -2.9431,-3.08 -5.3183,-4.6406 -5e-4,-3e-4 0,3e-4 0,0 -0.594,-0.3903 -1.2277,-0.7813 -1.9043,-1.1719 -5.9039,-3.4086 -38.4018,-22.1704 -64.94339,-37.4941 0,0 0,0 -0.01,0 -9e-4,-6e-4 -10e-4,0 0,0 -15.7459,-9.0909 -109.57083,-63.2608 -173.20506,-100 -23.86263,-13.7771 -64.95117,-37.5 -64.95117,-37.5 0,0 -9.32419,-5.3826 -21.85352,-5.5508 z"
       style="fill:#f4d7d7;stroke:#000000;stroke-width:1px;stroke-linecap:butt;stroke-linejoin:miter;stroke-opacity:1"
       id="path4706-7-7-1-1-5-9-7-9-6" />
  </g>
</svg>
