<?xml version="1.0" encoding="UTF-8" standalone="no"?>
<svg
   xmlns:dc="http://purl.org/dc/elements/1.1/"
   xmlns:cc="http://creativecommons.org/ns#"
   xmlns:rdf="http://www.w3.org/1999/02/22-rdf-syntax-ns#"
   xmlns:svg="http://www.w3.org/2000/svg"
   xmlns="http://www.w3.org/2000/svg"
   xmlns:xlink="http://www.w3.org/1999/xlink"
   xmlns:sodipodi="http://sodipodi.sourceforge.net/DTD/sodipodi-0.dtd"
   xmlns:inkscape="http://www.inkscape.org/namespaces/inkscape"
   inkscape:export-ydpi="26.183096"
   inkscape:export-xdpi="26.183096"
   inkscape:export-filename="/home/me/Projects/fec/logo-design/tela3.png"
   inkscape:version="1.0.1 (3bc2e813f5, 2020-09-07)"
   id="svg8"
   version="1.1"
   viewBox="0 0 1078.1403 348.45377"
   height="348.45377mm"
   width="1078.1403mm"
   sodipodi:docname="iso-fed4.svg">
  <defs
     id="defs2">
    <linearGradient
       inkscape:collect="always"
       id="linearGradient1347">
      <stop
         style="stop-color:#9b3f3f;stop-opacity:1;"
         offset="0"
         id="stop1343" />
      <stop
         style="stop-color:#9b3f3f;stop-opacity:0;"
         offset="1"
         id="stop1345" />
    </linearGradient>
    <filter
       height="1"
       y="-3.525303e-22"
       width="1"
       x="-2.1416193e-22"
       id="filter2963"
       style="color-interpolation-filters:sRGB"
       inkscape:collect="always">
      <feGaussianBlur
         id="feGaussianBlur2965"
         stdDeviation="1.4261604e-20"
         inkscape:collect="always" />
    </filter>
    <linearGradient
       inkscape:collect="always"
       xlink:href="#linearGradient1347"
       id="linearGradient1349"
       x1="-1010.4892"
       y1="-5488.7817"
       x2="-1138.5951"
       y2="-5219.8994"
       gradientUnits="userSpaceOnUse"
       gradientTransform="translate(-11.676366,-98.643333)" />
    <linearGradient
       inkscape:collect="always"
       xlink:href="#linearGradient1347"
       id="linearGradient1349-5"
       x1="-1010.4892"
       y1="-5488.7817"
       x2="-1138.5951"
       y2="-5219.8994"
       gradientUnits="userSpaceOnUse"
       gradientTransform="translate(-11.67649,-98.64343)" />
    <linearGradient
       inkscape:collect="always"
       xlink:href="#linearGradient1347"
       id="linearGradient1349-1"
       x1="-1010.4892"
       y1="-5488.7817"
       x2="-1138.5951"
       y2="-5219.8994"
       gradientUnits="userSpaceOnUse"
       gradientTransform="translate(-11.67628,-98.64323)" />
    <linearGradient
       inkscape:collect="always"
       xlink:href="#linearGradient1347"
       id="linearGradient1432"
       gradientUnits="userSpaceOnUse"
       gradientTransform="translate(-11.67649,-98.64346)"
       x1="-1010.4892"
       y1="-5488.7817"
       x2="-1138.5951"
       y2="-5219.8994" />
  </defs>
  <sodipodi:namedview
     fit-margin-bottom="0"
     fit-margin-right="0"
     fit-margin-left="0"
     fit-margin-top="0"
     showborder="false"
     inkscape:pagecheckerboard="true"
     showgrid="false"
     inkscape:document-rotation="0"
     inkscape:current-layer="g2287"
     inkscape:document-units="mm"
     inkscape:cy="9460.1537"
     inkscape:cx="-17219.587"
     inkscape:zoom="0.08"
     inkscape:pageshadow="2"
     inkscape:pageopacity="0"
     borderopacity="1.0"
     bordercolor="#666666"
     pagecolor="#1b1b1b"
     id="base"
     inkscape:window-width="1366"
     inkscape:window-height="704"
     inkscape:window-x="0"
     inkscape:window-y="27"
     inkscape:window-maximized="1" />
  <metadata
     id="metadata5">
    <rdf:RDF>
      <cc:Work
         rdf:about="">
        <dc:format>image/svg+xml</dc:format>
        <dc:type
           rdf:resource="http://purl.org/dc/dcmitype/StillImage" />
        <dc:title />
      </cc:Work>
    </rdf:RDF>
  </metadata>
  <g
     transform="translate(522.78788,-12.862554)"
     id="layer1"
     inkscape:groupmode="layer"
     inkscape:label="Layer 1">
    <g
       transform="translate(897.35018,5615.2273)"
       inkscape:label="Layer 1"
       id="layer1-3">
      <g
         id="g2287"
         transform="translate(-1552.4083,-691.19244)">
        <path
           id="path850-8"
           d="m -4711.5006,-2535.395 -413.2738,229.9487 757.6683,421.5725 413.2737,-229.9485 z"
           style="fill:#ac9393;stroke:none;stroke-width:0.520524px;stroke-linecap:butt;stroke-linejoin:miter;stroke-opacity:1"
           inkscape:export-filename="/home/me/Projects/fec/logo-design/tela3.png"
           inkscape:export-xdpi="26"
           inkscape:export-ydpi="26" />
        <path
           id="path852-3-7"
           d="m -4642.6219,-2497.0702 -413.2735,229.949 -68.879,-38.3251 413.2738,-229.9487 z"
           style="fill:#6c5353;stroke:none;stroke-width:0.520524px;stroke-linecap:butt;stroke-linejoin:miter;stroke-opacity:1"
           inkscape:export-filename="/home/me/Projects/fec/logo-design/tela3.png"
           inkscape:export-xdpi="26"
           inkscape:export-ydpi="26" />
        <path
           id="path854-6-9"
           d="m -4918.1378,-2343.7711 688.7898,383.2478 11.4796,-6.3875 -688.7895,-383.2476 z"
           style="fill:#241c1c;stroke:none;stroke-width:0.520524px;stroke-linecap:butt;stroke-linejoin:miter;stroke-opacity:1"
           inkscape:export-filename="/home/me/Projects/fec/logo-design/tela3.png"
           inkscape:export-xdpi="26"
           inkscape:export-ydpi="26" />
        <path
           id="path856-7-2"
           d="m -4918.1378,-2343.7711 -137.7576,76.6499 688.7893,383.2474 137.7581,-76.6495 z"
           style="fill:#483737;stroke:none;stroke-width:0.520524px;stroke-linecap:butt;stroke-linejoin:miter;stroke-opacity:1"
           inkscape:export-filename="/home/me/Projects/fec/logo-design/tela3.png"
           inkscape:export-xdpi="26"
           inkscape:export-ydpi="26" />
        <path
           id="path858-02"
           d="m -4642.6219,-2497.0702 688.7895,383.2479 -264.036,146.9115 -688.7895,-383.2476 z"
           style="fill:#483737;stroke:none;stroke-width:0.520524px;stroke-linecap:butt;stroke-linejoin:miter;stroke-opacity:1"
           inkscape:export-filename="/home/me/Projects/fec/logo-design/tela3.png"
           inkscape:export-xdpi="26"
           inkscape:export-ydpi="26" />
        <path
           id="path860-3"
           d="m -4619.6625,-2484.295 -264.0358,146.9115 -22.9596,-12.7749 264.036,-146.9118 z"
           style="fill:#594444;fill-opacity:1;stroke:none;stroke-width:0.520524px;stroke-linecap:butt;stroke-linejoin:miter;stroke-opacity:1"
           inkscape:export-filename="/home/me/Projects/fec/logo-design/tela3.png"
           inkscape:export-xdpi="26"
           inkscape:export-ydpi="26" />
        <path
           id="path862-7"
           d="m -4941.0974,-2330.9959 22.9596,-12.7752 688.7898,383.2478 -22.9596,12.775 z"
           style="fill:none;stroke:none;stroke-width:0.520524px;stroke-linecap:butt;stroke-linejoin:miter;stroke-opacity:1"
           inkscape:export-filename="/home/me/Projects/fec/logo-design/tela3.png"
           inkscape:export-xdpi="26"
           inkscape:export-ydpi="26" />
        <path
           id="path866-5"
           d="m -4631.1421,-2465.1327 c 0,0 11.4796,-6.3876 22.9596,0 11.4801,6.3871 11.4801,6.3871 22.9597,12.7747 11.4801,6.3876 0,12.7752 0,12.7752 0,0 -11.4796,6.3874 -22.9597,0 -11.48,-6.3876 -22.9596,-12.7752 -22.9596,-12.7752 0,0 -11.4798,-6.3876 0,-12.7747 z"
           style="fill:#d40000;stroke:none;stroke-width:0.520524px;stroke-linecap:butt;stroke-linejoin:miter;stroke-opacity:1"
           inkscape:export-filename="/home/me/Projects/fec/logo-design/tela3.png"
           inkscape:export-xdpi="26"
           inkscape:export-ydpi="26" />
        <path
           id="path868-9"
           d="m -4573.7427,-2433.1954 c 0,0 11.4795,-6.3874 22.9594,0 11.4798,6.3873 34.4394,19.1622 45.9193,25.5498 11.4798,6.3876 0,12.7752 0,12.7752 0,0 -11.4799,6.3871 -22.9597,0 -11.4798,-6.3876 -34.4395,-19.1628 -45.919,-25.5501 -11.4801,-6.3876 0,-12.7749 0,-12.7749 z"
           style="fill:#ff6600;stroke:none;stroke-width:0.520524px;stroke-linecap:butt;stroke-linejoin:miter;stroke-opacity:1"
           inkscape:export-filename="/home/me/Projects/fec/logo-design/tela3.png"
           inkscape:export-xdpi="26"
           inkscape:export-ydpi="26" />
        <path
           id="path872-2"
           d="m -4642.6219,-2433.1954 c 11.4798,-6.3874 22.9594,0 22.9594,0 l 68.8792,38.325 c 0,0 11.4798,6.3871 0,12.7747 -11.4799,6.3874 -22.9594,0 -22.9594,0 0,0 -57.3994,-31.9375 -68.8792,-38.3248 -11.4794,-6.3876 0,-12.7749 0,-12.7749 z"
           style="fill:#ffd5d5;stroke:none;stroke-width:0.520524px;stroke-linecap:butt;stroke-linejoin:miter;stroke-opacity:1"
           inkscape:export-filename="/home/me/Projects/fec/logo-design/tela3.png"
           inkscape:export-xdpi="26"
           inkscape:export-ydpi="26" />
        <path
           id="path874-2"
           d="m -4539.3035,-2375.7083 c 0,0 11.4798,-6.3874 22.9596,0 11.4799,6.3873 80.3588,44.7124 80.3588,44.7124 0,0 11.4799,6.3874 0,12.775 -11.4798,6.3873 -22.9596,0 -22.9596,0 l -80.3588,-44.7125 c 0,0 -11.4798,-6.3876 0,-12.7749 z"
           style="fill:#ff6600;stroke:none;stroke-width:0.520524px;stroke-linecap:butt;stroke-linejoin:miter;stroke-opacity:1"
           inkscape:export-filename="/home/me/Projects/fec/logo-design/tela3.png"
           inkscape:export-xdpi="26"
           inkscape:export-ydpi="26" />
        <path
           id="path876-8"
           d="m -4700.0208,-2426.8081 c 11.4798,-6.3873 22.9596,0 22.9596,0 l 22.9599,12.7749 c 0,0 11.4794,6.3876 0,12.7752 -11.48,6.3876 -22.9599,0 -22.9599,0 l -22.9596,-12.7752 c 0,0 -11.4798,-6.3873 0,-12.7749 z"
           style="fill:#d40000;stroke:none;stroke-width:0.520524px;stroke-linecap:butt;stroke-linejoin:miter;stroke-opacity:1"
           inkscape:export-filename="/home/me/Projects/fec/logo-design/tela3.png"
           inkscape:export-xdpi="26"
           inkscape:export-ydpi="26" />
        <path
           style="fill:#d40000;stroke:none;stroke-width:0.520524px;stroke-linecap:butt;stroke-linejoin:miter;stroke-opacity:1"
           d="m -4745.9401,-2401.258 c 0,0 11.4798,-6.3876 22.9596,0 11.4799,6.3876 11.4799,6.3876 22.9597,12.7747 11.4796,6.3876 0,12.775 0,12.775 0,0 -11.4798,6.3873 -22.9597,0 -11.4798,-6.3874 -22.9596,-12.775 -22.9596,-12.775 0,0 -11.4798,-6.3871 0,-12.7747 z"
           id="path866-3-9"
           inkscape:export-filename="/home/me/Projects/fec/logo-design/tela3.png"
           inkscape:export-xdpi="26"
           inkscape:export-ydpi="26" />
        <path
           d="m -4746.0472,-2372.1574 c -3.4799,-0.045 -7.427,0.6408 -11.373,2.8364 0,0 -11.4798,6.3876 0,12.7752 11.4798,6.3874 68.8792,38.3249 68.8792,38.3249 11.4798,6.3873 68.879,38.3245 68.879,38.3245 0,0 11.4795,6.3876 22.9596,0 11.4798,-6.3876 0,-12.7749 0,-12.7749 l -68.8792,-38.3246 -68.8784,-38.3251 c 0,0 -4.9439,-2.7504 -11.5872,-2.8364 z"
           style="fill:#ffd5d5;stroke:none;stroke-width:0.520524px;stroke-linecap:butt;stroke-linejoin:miter;stroke-opacity:1"
           id="path872-6-7"
           inkscape:export-filename="/home/me/Projects/fec/logo-design/tela3.png"
           inkscape:export-xdpi="26"
           inkscape:export-ydpi="26" />
        <path
           style="fill:#ffd5d5;stroke:none;stroke-width:0.520524px;stroke-linecap:butt;stroke-linejoin:miter;stroke-opacity:1"
           d="m -4791.8597,-2350.1584 c 11.4801,-6.3874 22.9599,0 22.9599,0 l 68.879,38.3248 c 0,0 11.4798,6.3873 0,12.7747 -11.4798,6.3876 -22.9597,0 -22.9597,0 0,0 -57.3991,-31.937 -68.8792,-38.3246 -11.4798,-6.3876 0,-12.7749 0,-12.7749 z"
           id="path872-5-3"
           inkscape:export-filename="/home/me/Projects/fec/logo-design/tela3.png"
           inkscape:export-xdpi="26"
           inkscape:export-ydpi="26" />
        <path
           style="fill:#ff6600;stroke:none;stroke-width:0.520524px;stroke-linecap:butt;stroke-linejoin:miter;stroke-opacity:1"
           d="m -4688.541,-2292.6713 c 0,0 11.4798,-6.3876 22.9594,0 11.4803,6.3873 34.4395,19.1625 45.9191,25.5501 11.48,6.3871 0,12.7747 0,12.7747 0,0 -11.4796,6.3876 -22.9594,0 -11.4794,-6.3876 -34.4393,-19.1623 -45.9191,-25.5499 -11.4798,-6.3876 0,-12.7749 0,-12.7749 z"
           id="path868-5-61"
           inkscape:export-filename="/home/me/Projects/fec/logo-design/tela3.png"
           inkscape:export-xdpi="26"
           inkscape:export-ydpi="26" />
        <path
           id="path866-3-6-2"
           d="m -4849.2586,-2344.9729 c 0,0 11.4796,-6.3876 22.9597,0 11.4796,6.3873 11.4796,6.3873 22.9594,12.7747 11.4798,6.3875 0,12.7749 0,12.7749 0,0 -11.4798,6.3873 -22.9594,0 -11.4801,-6.3874 -22.9597,-12.7749 -22.9597,-12.7749 0,0 -11.48,-6.3874 0,-12.7747 z"
           style="fill:#d40000;stroke:none;stroke-width:0.520524px;stroke-linecap:butt;stroke-linejoin:miter;stroke-opacity:1"
           inkscape:export-filename="/home/me/Projects/fec/logo-design/tela3.png"
           inkscape:export-xdpi="26"
           inkscape:export-ydpi="26" />
        <path
           id="path852-4-9-9"
           d="m -1404.8073,-2602.1802 -413.2738,229.9485 -68.879,-38.3248 413.2737,-229.9485 z"
           style="fill:#6c5353;stroke:none;stroke-width:0.520524px;stroke-linecap:butt;stroke-linejoin:miter;stroke-opacity:1"
           inkscape:export-filename="/home/me/Projects/fec/logo-design/tela1.png"
           inkscape:export-xdpi="26"
           inkscape:export-ydpi="26" />
        <path
           id="path858-0-0-3"
           d="m -1404.8073,-2602.1802 688.78954,383.2476 -413.27374,229.9487 -688.7896,-383.2478 z"
           style="fill:#483737;stroke:none;stroke-width:0.520524px;stroke-linecap:butt;stroke-linejoin:miter;stroke-opacity:1"
           sodipodi:nodetypes="ccccc"
           inkscape:export-filename="/home/me/Projects/fec/logo-design/tela1.png"
           inkscape:export-xdpi="26"
           inkscape:export-ydpi="26" />
        <path
           id="path4673-7"
           d="m -1278.5292,-2506.3685 c 11.4799,-6.3873 22.9597,0 22.9597,0 0,0 80.3586,44.7122 91.8384,51.0998 11.4799,6.3876 0,12.7749 0,12.7749 0,0 -11.4798,6.3876 -22.9596,12.775 -11.4796,6.3876 -22.9595,0 -22.9595,0 l -91.8386,-51.0998 c 0,0 -11.4799,-6.3876 0,-12.7749 11.4798,-6.3874 22.9596,-12.775 22.9596,-12.775 z"
           style="fill:#e3dbdb;stroke:none;stroke-width:0.520524px;stroke-linecap:butt;stroke-linejoin:miter;stroke-opacity:1"
           inkscape:export-filename="/home/me/Projects/fec/logo-design/tela1.png"
           inkscape:export-xdpi="26"
           inkscape:export-ydpi="26" />
        <path
           d="m -1129.3987,-2432.5552 c -3.4801,-0.045 -7.426,0.6405 -11.3721,2.8364 0,0 -11.4806,6.3876 -22.9604,12.7747 -11.4799,6.3876 0,12.7752 0,12.7752 l 91.8386,51.0997 91.83867,51.0996 c 0,0 11.48045,6.3873 22.96028,0 11.47985,-6.3874 22.95943,-12.775 22.95943,-12.775 0,0 11.47987,-6.3873 0,-12.7749 -11.4798,-6.3876 -91.83858,-51.0998 -91.83858,-51.0998 -11.4799,-6.3873 -91.8385,-51.0995 -91.8385,-51.0995 0,0 -4.9442,-2.7505 -11.5874,-2.8364 z"
           style="fill:#e3dbdb;stroke:none;stroke-width:0.520524px;stroke-linecap:butt;stroke-linejoin:miter;stroke-opacity:1"
           id="path4673-9-4"
           inkscape:export-filename="/home/me/Projects/fec/logo-design/tela1.png"
           inkscape:export-xdpi="26"
           inkscape:export-ydpi="26" />
        <path
           id="path4706-5"
           d="m -1473.6864,-2551.0804 c 11.4799,-6.3876 22.9597,0 22.9597,0 0,0 114.7983,63.8742 126.2782,70.2618 11.4798,6.3876 0,12.7752 0,12.7752 0,0 -11.4799,6.3871 -22.9597,0 -11.4798,-6.3876 -126.2782,-70.2623 -126.2782,-70.2623 0,0 -8.6474,-4.8115 0,-12.7747 z"
           style="fill:#f4d7d7;stroke:none;stroke-width:0.520524px;stroke-linecap:butt;stroke-linejoin:miter;stroke-opacity:1"
           inkscape:export-filename="/home/me/Projects/fec/logo-design/tela1.png"
           inkscape:export-xdpi="26"
           inkscape:export-ydpi="26" />
        <path
           d="m -1301.5967,-2464.4925 c -3.4799,-0.045 -7.4258,0.6406 -11.372,2.8362 -8.6475,7.9637 0,12.7752 0,12.7752 0,0 54.3028,30.2144 91.8387,51.0995 14.0757,7.8322 31.3082,17.4204 34.4391,19.1623 0,0 0,0 0,0 33.7419,18.7745 83.4857,46.4528 91.8344,51.0978 11.4799,6.3876 22.9605,0 22.9605,0 0,0 11.4799,-6.3876 0,-12.7747 -8.3484,-4.645 -58.0885,-32.3211 -91.8315,-51.096 0,0 0,0 0,0 -3.1309,-1.7419 -20.364,-11.3304 -34.44,-19.1623 -37.5359,-20.8854 -91.8387,-51.0998 -91.8387,-51.0998 0,0 -4.9439,-2.7504 -11.5874,-2.8364 z"
           style="fill:#f4d7d7;stroke:none;stroke-width:0.520524px;stroke-linecap:butt;stroke-linejoin:miter;stroke-opacity:1"
           id="path4706-7-2"
           inkscape:export-filename="/home/me/Projects/fec/logo-design/tela1.png"
           inkscape:export-xdpi="26"
           inkscape:export-ydpi="26" />
        <path
           style="fill:#f4d7d7;stroke:none;stroke-width:0.520524px;stroke-linecap:butt;stroke-linejoin:miter;stroke-opacity:1"
           d="m -1060.4125,-2321.1319 c 11.4798,-6.3876 22.9596,0 22.9596,0 0,0 114.79833,63.8745 126.27818,70.2618 11.4798,6.3876 0,12.7752 0,12.7752 0,0 -11.47985,6.3876 -22.95965,0 -11.47986,-6.3876 -126.27813,-70.2621 -126.27813,-70.2621 0,0 -8.6476,-4.8117 0,-12.7749 z"
           id="path4706-7-7-1-54"
           inkscape:export-filename="/home/me/Projects/fec/logo-design/tela1.png"
           inkscape:export-xdpi="26"
           inkscape:export-ydpi="26" />
        <path
           d="m -1496.7536,-2534.7545 c -3.4799,-0.045 -7.426,0.6405 -11.372,2.8364 -8.6477,7.9635 0,12.7749 0,12.7749 0,0 30.4438,16.9396 57.3944,31.9353 0,0 0,0 0,0 l 57.3993,31.9372 c 2.5876,1.4395 10.4362,5.8067 11.4798,6.3876 4e-4,2e-4 0,0 0,0 l 57.3984,31.939 c 11.4798,6.3876 22.9595,0 22.9595,0 0,0 11.4798,-6.3871 0,-12.7747 -5.2175,-2.9031 -29.9678,-16.6746 -57.3912,-31.9332 0,0 0,0 0,0 -6.2618,-3.4843 -36.5361,-20.3293 -68.8802,-38.3261 -26.9523,-14.9962 -57.3983,-31.9363 -57.3983,-31.9363 0,0 -4.9441,-2.7501 -11.5874,-2.8359 z"
           style="fill:#f4d7d7;stroke:none;stroke-width:0.520524px;stroke-linecap:butt;stroke-linejoin:miter;stroke-opacity:1"
           id="path4706-7-7-1-1-7"
           inkscape:export-filename="/home/me/Projects/fec/logo-design/tela1.png"
           inkscape:export-xdpi="26"
           inkscape:export-ydpi="26" />
        <path
           id="path4706-7-7-1-1-5-9-4"
           d="m -1278.5292,-2404.1689 c 11.4799,-6.3876 22.9597,0 22.9597,0 0,0 114.7981,63.8742 126.278,70.2618 11.4798,6.3876 0,12.7752 0,12.7752 0,0 -11.4799,6.3873 -22.9597,0 -11.4799,-6.3876 -126.278,-70.2621 -126.278,-70.2621 0,0 -8.6476,-4.8114 0,-12.7749 z"
           style="fill:#f4d7d7;stroke:none;stroke-width:0.520524px;stroke-linecap:butt;stroke-linejoin:miter;stroke-opacity:1"
           inkscape:export-filename="/home/me/Projects/fec/logo-design/tela1.png"
           inkscape:export-xdpi="26"
           inkscape:export-ydpi="26" />
        <path
           d="m -1094.9591,-2311.1934 c -3.48,-0.045 -7.4268,0.6408 -11.373,2.8364 -8.6475,7.9633 0,12.7747 0,12.7747 l 34.4401,19.1628 91.83865,51.0993 34.43912,19.1625 c 11.47986,6.3876 22.95923,0 22.95923,0 0,0 1.89504,-1.0544 3.37516,-2.7349 0.22763,-0.2579 0.44554,-0.5317 0.64515,-0.818 0.10003,-0.1429 0.19429,-0.2896 0.28474,-0.4392 0.26916,-0.4493 0.48782,-0.9261 0.62768,-1.4263 0.0923,-0.3331 0.15042,-0.6768 0.16647,-1.0288 0.0303,-0.7042 -0.11432,-1.4426 -0.50025,-2.2027 -0.19229,-0.3803 -0.44587,-0.7654 -0.76734,-1.1547 -0.64305,-0.7789 -1.56051,-1.5739 -2.82001,-2.3714 -2.2e-4,-2e-4 0,0 0,0 -0.31508,-0.198 -0.65112,-0.3994 -1.00985,-0.5989 -3.13024,-1.7416 -20.36164,-11.3289 -34.43491,-19.1593 0,0 0,0 0,0 -3.8e-4,-5e-4 -3.8e-4,0 0,0 -8.34888,-4.6455 -58.09774,-32.3261 -91.83864,-51.0998 -12.6525,-7.0399 -34.4391,-19.1625 -34.4391,-19.1625 0,0 -4.9439,-2.7504 -11.5874,-2.8362 z"
           style="fill:#f4d7d7;stroke:none;stroke-width:0.520524px;stroke-linecap:butt;stroke-linejoin:miter;stroke-opacity:1"
           id="path4706-7-7-1-1-5-9-7-4"
           inkscape:export-filename="/home/me/Projects/fec/logo-design/tela1.png"
           inkscape:export-xdpi="26"
           inkscape:export-ydpi="26" />
        <path
           style="fill:#f4d7d7;stroke:none;stroke-width:0.520524px;stroke-linecap:butt;stroke-linejoin:miter;stroke-opacity:1"
           d="m -1542.5653,-2512.7558 c 11.4798,-6.3874 22.9596,0 22.9596,0 0,0 114.7984,63.8747 126.2782,70.262 11.4798,6.3876 0,12.775 0,12.775 0,0 -11.4798,6.3876 -22.9597,0 -11.4798,-6.3874 -126.2781,-70.2621 -126.2781,-70.2621 0,0 -8.6474,-4.8117 0,-12.7749 z"
           id="path4706-73-3"
           inkscape:export-filename="/home/me/Projects/fec/logo-design/tela1.png"
           inkscape:export-xdpi="26"
           inkscape:export-ydpi="26" />
        <path
           id="path4706-7-6-0"
           style="fill:#f4d7d7;stroke:none;stroke-width:0.520524px;stroke-linecap:butt;stroke-linejoin:miter;stroke-opacity:1"
           d="m -1370.4756,-2426.1676 c -3.48,-0.045 -7.4259,0.6405 -11.3721,2.8364 -8.6475,7.9632 0,12.7747 0,12.7747 0,0 54.3028,30.2146 91.8387,51.1 14.0759,7.8319 31.3082,17.4202 34.4391,19.1618 0,0 0,0 0,0 33.7419,18.7745 83.4859,46.4528 91.8344,51.098 11.4799,6.3874 22.9605,0 22.9605,0 0,0 11.4799,-6.3873 0,-12.7747 -8.3483,-4.6452 -58.0886,-32.321 -91.8314,-51.096 0,0 0,0 0,0 -3.1309,-1.7416 -20.3641,-11.3299 -34.4401,-19.162 -37.5359,-20.8856 -91.8387,-51.1001 -91.8387,-51.1001 0,0 -4.9439,-2.7504 -11.5875,-2.8361 z"
           inkscape:export-filename="/home/me/Projects/fec/logo-design/tela1.png"
           inkscape:export-xdpi="26"
           inkscape:export-ydpi="26" />
        <path
           id="path4706-7-7-1-5-7"
           d="m -1129.2915,-2282.8071 c 11.4798,-6.3876 22.9596,0 22.9596,0 0,0 114.7983,63.8745 126.2782,70.2621 11.4798,6.3873 0,12.7749 0,12.7749 0,0 -11.4799,6.3876 -22.9597,0 -11.4799,-6.3876 -126.2781,-70.2623 -126.2781,-70.2623 0,0 -8.6476,-4.8114 0,-12.7747 z"
           style="fill:#f4d7d7;stroke:none;stroke-width:0.520524px;stroke-linecap:butt;stroke-linejoin:miter;stroke-opacity:1"
           inkscape:export-filename="/home/me/Projects/fec/logo-design/tela1.png"
           inkscape:export-xdpi="26"
           inkscape:export-ydpi="26" />
        <path
           id="path4706-7-7-1-1-6-8"
           style="fill:#f4d7d7;stroke:none;stroke-width:0.520524px;stroke-linecap:butt;stroke-linejoin:miter;stroke-opacity:1"
           d="m -1565.6333,-2496.4287 c -3.4799,-0.045 -7.4257,0.6405 -11.372,2.8362 -8.6474,7.9637 0,12.7752 0,12.7752 0,0 30.4441,16.9398 57.3944,31.9352 0,0 0,0 0,0 l 57.3996,31.9375 c 2.5875,1.4395 10.4362,5.8067 11.4796,6.3871 5e-4,5e-4 0,0 0,0 l 57.3984,31.9395 c 11.4798,6.3876 22.9595,0 22.9595,0 0,0 11.4798,-6.3874 0,-12.7747 -5.2175,-2.9031 -29.9678,-16.6749 -57.3914,-31.9335 0,0 0,0 0,0 -6.2618,-3.4842 -36.5362,-20.3293 -68.8803,-38.3258 -26.9523,-14.9967 -57.3984,-31.9365 -57.3984,-31.9365 0,0 -4.9443,-2.7505 -11.5876,-2.8365 z"
           inkscape:export-filename="/home/me/Projects/fec/logo-design/tela1.png"
           inkscape:export-xdpi="26"
           inkscape:export-ydpi="26" />
        <path
           style="fill:#f4d7d7;stroke:none;stroke-width:0.520524px;stroke-linecap:butt;stroke-linejoin:miter;stroke-opacity:1"
           d="m -1347.4088,-2365.8431 c 11.4799,-6.3873 22.9597,0 22.9597,0 0,0 114.7983,63.8745 126.2781,70.2621 11.4799,6.3876 0,12.7749 0,12.7749 0,0 -11.4798,6.3874 -22.9596,0 -11.4798,-6.3873 -126.2782,-70.262 -126.2782,-70.262 0,0 -8.6475,-4.8117 0,-12.775 z"
           id="path4706-7-7-1-1-5-9-3-6"
           inkscape:export-filename="/home/me/Projects/fec/logo-design/tela1.png"
           inkscape:export-xdpi="26"
           inkscape:export-ydpi="26" />
        <path
           id="path4706-7-7-1-1-5-9-7-9-8"
           style="fill:#f4d7d7;stroke:none;stroke-width:0.520524px;stroke-linecap:butt;stroke-linejoin:miter;stroke-opacity:1"
           d="m -1163.8387,-2272.8676 c -3.4797,-0.045 -7.4268,0.6406 -11.373,2.8365 -8.6476,7.9632 0,12.7749 0,12.7749 l 34.4401,19.1623 91.8387,51.0998 34.4391,19.1623 c 11.4798,6.3876 22.95944,0 22.95944,0 0,0 1.89482,-1.0545 3.37496,-2.7347 0.22764,-0.2579 0.44549,-0.5317 0.64528,-0.8185 0.10003,-0.1404 0.19429,-0.2893 0.28479,-0.439 0.26888,-0.449 0.48759,-0.9261 0.62748,-1.426 0.0923,-0.3334 0.15042,-0.6769 0.16647,-1.0291 0.0303,-0.704 -0.11432,-1.4425 -0.50023,-2.2026 -0.19228,-0.3801 -0.44569,-0.7652 -0.76732,-1.155 -0.64309,-0.7785 -1.56056,-1.5737 -2.82005,-2.3712 -2.3e-4,0 0,3e-4 0,0 -0.31485,-0.198 -0.65092,-0.3991 -1.00965,-0.5986 -3.13049,-1.7419 -20.36177,-11.3294 -34.43507,-19.1596 0,0 0,0 0,0 -4e-4,-2e-4 0,0 0,0 -8.349,-4.6452 -58.0978,-32.326 -91.8386,-51.0997 -12.6527,-7.0402 -34.4391,-19.1623 -34.4391,-19.1623 0,0 -4.944,-2.7505 -11.5873,-2.8367 z"
           inkscape:export-filename="/home/me/Projects/fec/logo-design/tela1.png"
           inkscape:export-xdpi="26"
           inkscape:export-ydpi="26" />
        <path
           style="fill:#f4d7d7;stroke:none;stroke-width:0.520524px;stroke-linecap:butt;stroke-linejoin:miter;stroke-opacity:1"
           d="m -1634.4029,-2461.6573 c 11.4798,-6.3876 22.9596,0 22.9596,0 0,0 114.7983,63.8747 126.2781,70.2623 11.4796,6.3871 0,12.7747 0,12.7747 0,0 -11.4798,6.3876 -22.9596,0 -11.4799,-6.3876 -126.2781,-70.2621 -126.2781,-70.2621 0,0 -8.6477,-4.8114 0,-12.7749 z"
           id="path4706-4-8"
           inkscape:export-filename="/home/me/Projects/fec/logo-design/tela1.png"
           inkscape:export-xdpi="26"
           inkscape:export-ydpi="26" />
        <path
           id="path4706-7-8-4"
           style="fill:#f4d7d7;stroke:none;stroke-width:0.520524px;stroke-linecap:butt;stroke-linejoin:miter;stroke-opacity:1"
           d="m -1462.3136,-2375.0691 c -3.4797,-0.045 -7.4257,0.6405 -11.372,2.8364 -8.6472,7.9635 0,12.7749 0,12.7749 0,0 54.3031,30.2145 91.8387,51.0993 14.0759,7.8322 31.3083,17.4207 34.4391,19.1628 0,0 0,0 0,0 33.7419,18.7742 83.4859,46.4523 91.8345,51.0975 11.4798,6.3876 22.9605,0 22.9605,0 0,0 11.4798,-6.3873 0,-12.7749 -8.3482,-4.645 -58.0884,-32.3208 -91.8313,-51.0958 0,0 0,0 0,0 -3.1309,-1.7418 -20.3639,-11.3304 -34.4401,-19.1623 -37.5359,-20.8853 -91.8385,-51.0995 -91.8385,-51.0995 0,0 -4.9441,-2.7509 -11.5874,-2.8369 z"
           inkscape:export-filename="/home/me/Projects/fec/logo-design/tela1.png"
           inkscape:export-xdpi="26"
           inkscape:export-ydpi="26" />
        <path
           id="path4706-7-7-1-12-3"
           d="m -1221.1292,-2231.7086 c 11.4798,-6.3876 22.9597,0 22.9597,0 0,0 114.7983,63.8745 126.2779,70.2621 11.48,6.3874 0,12.775 0,12.775 0,0 -11.4796,6.3873 -22.9595,0 -11.4798,-6.3876 -126.2781,-70.2624 -126.2781,-70.2624 0,0 -8.6475,-4.8114 0,-12.7747 z"
           style="fill:#f4d7d7;stroke:none;stroke-width:0.520524px;stroke-linecap:butt;stroke-linejoin:miter;stroke-opacity:1"
           inkscape:export-filename="/home/me/Projects/fec/logo-design/tela1.png"
           inkscape:export-xdpi="26"
           inkscape:export-ydpi="26" />
        <path
           id="path4706-7-7-1-1-9-1"
           style="fill:#f4d7d7;stroke:none;stroke-width:0.520524px;stroke-linecap:butt;stroke-linejoin:miter;stroke-opacity:1"
           d="m -1657.4701,-2445.3314 c -3.4802,-0.045 -7.426,0.641 -11.372,2.8366 -8.6477,7.9633 0,12.7747 0,12.7747 0,0 30.4438,16.9401 57.3943,31.9355 0,0 0,0 0,0 l 57.3994,31.9372 c 2.5875,1.4398 10.4359,5.8068 11.4796,6.3876 5e-4,0 0,0 0,0 l 57.3986,31.939 c 11.4798,6.3876 22.9594,0 22.9594,0 0,0 11.4798,-6.3871 0,-12.7747 -5.2173,-2.9031 -29.9677,-16.6746 -57.3911,-31.9334 0,0 0,0 0,0 -6.262,-3.4838 -36.5363,-20.3293 -68.8805,-38.3256 -26.9523,-14.9964 -57.3986,-31.9363 -57.3986,-31.9363 0,0 -4.9438,-2.7504 -11.5874,-2.8364 z"
           inkscape:export-filename="/home/me/Projects/fec/logo-design/tela1.png"
           inkscape:export-xdpi="26"
           inkscape:export-ydpi="26" />
        <path
           style="fill:#f4d7d7;stroke:none;stroke-width:0.520524px;stroke-linecap:butt;stroke-linejoin:miter;stroke-opacity:1"
           d="m -1439.2461,-2314.7456 c 11.4799,-6.3876 22.9597,0 22.9597,0 0,0 114.7984,63.8745 126.2782,70.2621 11.4799,6.3873 0,12.7749 0,12.7749 0,0 -11.4798,6.3874 -22.9597,0 -11.4798,-6.3876 -126.2782,-70.2623 -126.2782,-70.2623 0,0 -8.6472,-4.8114 0,-12.7747 z"
           id="path4706-7-7-1-1-5-9-39-4"
           inkscape:export-filename="/home/me/Projects/fec/logo-design/tela1.png"
           inkscape:export-xdpi="26"
           inkscape:export-ydpi="26" />
        <path
           id="path4706-7-7-1-1-5-9-7-0-9"
           style="fill:#f4d7d7;stroke:none;stroke-width:0.520524px;stroke-linecap:butt;stroke-linejoin:miter;stroke-opacity:1"
           d="m -1255.6757,-2221.7703 c -3.48,-0.045 -7.4269,0.6408 -11.3731,2.8364 -8.6475,7.9638 0,12.7752 0,12.7752 l 34.4402,19.1623 91.8384,51.0996 34.4393,19.1627 c 11.4796,6.3871 22.9593,0 22.9593,0 0,0 1.8948,-1.0549 3.3749,-2.7348 0.2277,-0.2583 0.4455,-0.532 0.6453,-0.8183 0.1001,-0.1429 0.1943,-0.2896 0.2848,-0.4393 0.2692,-0.449 0.4878,-0.926 0.6276,-1.4262 0.092,-0.3332 0.1505,-0.6771 0.1665,-1.0289 0.03,-0.7042 -0.1143,-1.4425 -0.5,-2.2029 -0.1923,-0.3798 -0.4459,-0.7654 -0.7675,-1.1545 -0.6431,-0.7791 -1.5605,-1.5741 -2.8199,-2.3713 -2e-4,-3e-4 0,0 0,0 -0.315,-0.1981 -0.6511,-0.3996 -1.0098,-0.599 -3.1305,-1.7418 -20.3618,-11.3289 -34.4349,-19.1595 0,0 0,0 0,0 0,-2e-4 0,0 0,0 -8.3491,-4.6452 -58.0979,-32.3258 -91.8386,-51.0995 -12.6528,-7.0399 -34.4391,-19.1623 -34.4391,-19.1623 0,0 -4.944,-2.7504 -11.5875,-2.8364 z"
           inkscape:export-filename="/home/me/Projects/fec/logo-design/tela1.png"
           inkscape:export-xdpi="26"
           inkscape:export-ydpi="26" />
        <path
           id="path4706-73-8-2"
           d="m -1703.2819,-2423.3325 c 11.4799,-6.3876 22.9597,0 22.9597,0 0,0 114.7982,63.8747 126.2781,70.2621 11.4798,6.3873 0,12.7749 0,12.7749 0,0 -11.4799,6.3876 -22.9597,0 -11.4798,-6.3876 -126.2781,-70.262 -126.2781,-70.262 0,0 -8.6476,-4.8117 0,-12.775 z"
           style="fill:#f4d7d7;stroke:none;stroke-width:0.520524px;stroke-linecap:butt;stroke-linejoin:miter;stroke-opacity:1"
           inkscape:export-filename="/home/me/Projects/fec/logo-design/tela1.png"
           inkscape:export-xdpi="26"
           inkscape:export-ydpi="26" />
        <path
           d="m -1531.1923,-2336.7445 c -3.48,-0.045 -7.4257,0.6408 -11.372,2.8366 -8.6474,7.9633 0,12.7747 0,12.7747 0,0 54.3027,30.2147 91.8383,51.0998 14.0759,7.8319 31.3085,17.4202 34.4393,19.1623 0,0 0,0 0,0 33.7418,18.7742 83.4857,46.4525 91.8344,51.0975 11.4798,6.3876 22.9602,0 22.9602,0 0,0 11.4799,-6.3871 0,-12.7747 -8.3481,-4.6449 -58.0883,-32.3208 -91.8312,-51.0957 0,0 0,0 0,0 -3.1309,-1.7419 -20.364,-11.3302 -34.44,-19.1623 -37.5359,-20.8854 -91.8386,-51.0998 -91.8386,-51.0998 0,0 -4.9443,-2.7507 -11.5876,-2.8364 z"
           style="fill:#f4d7d7;stroke:none;stroke-width:0.520524px;stroke-linecap:butt;stroke-linejoin:miter;stroke-opacity:1"
           id="path4706-7-6-8-0"
           inkscape:export-filename="/home/me/Projects/fec/logo-design/tela1.png"
           inkscape:export-xdpi="26"
           inkscape:export-ydpi="26" />
        <path
           style="fill:#f4d7d7;stroke:none;stroke-width:0.520524px;stroke-linecap:butt;stroke-linejoin:miter;stroke-opacity:1"
           d="m -1290.0082,-2193.384 c 11.4799,-6.3873 22.9597,0 22.9597,0 0,0 114.7983,63.8747 126.2781,70.2623 11.4798,6.3876 0,12.7747 0,12.7747 0,0 -11.4798,6.3876 -22.9597,0 -11.4798,-6.3871 -126.2781,-70.2618 -126.2781,-70.2618 0,0 -8.6476,-4.8119 0,-12.7752 z"
           id="path4706-7-7-1-5-5-6"
           inkscape:export-filename="/home/me/Projects/fec/logo-design/tela1.png"
           inkscape:export-xdpi="26"
           inkscape:export-ydpi="26" />
        <path
           d="m -1726.3498,-2407.0054 c -3.48,-0.045 -7.426,0.6406 -11.3721,2.8365 -8.6474,7.9635 0,12.7749 0,12.7749 0,0 30.4439,16.9396 57.3944,31.9352 0,0 0,0 0,0 l 57.3996,31.9373 c 2.5873,1.4395 10.436,5.8067 11.4796,6.3876 5e-4,2e-4 0,0 0,0 l 57.3986,31.9392 c 11.4799,6.3876 22.9592,0 22.9592,0 0,0 11.4798,-6.3876 0,-12.7749 -5.2173,-2.9029 -29.9675,-16.6746 -57.3911,-31.9332 0,0 0,0 0,0 -6.262,-3.4845 -36.5363,-20.3294 -68.8805,-38.3261 -26.9523,-14.9964 -57.3983,-31.9363 -57.3983,-31.9363 0,0 -4.9441,-2.7504 -11.5874,-2.8364 z"
           style="fill:#f4d7d7;stroke:none;stroke-width:0.520524px;stroke-linecap:butt;stroke-linejoin:miter;stroke-opacity:1"
           id="path4706-7-7-1-1-6-0-8"
           inkscape:export-filename="/home/me/Projects/fec/logo-design/tela1.png"
           inkscape:export-xdpi="26"
           inkscape:export-ydpi="26" />
        <path
           id="path4706-7-7-1-1-5-9-3-9-9"
           d="m -1508.1253,-2276.4195 c 11.4798,-6.3876 22.9596,0 22.9596,0 0,0 114.7981,63.8745 126.2779,70.2618 11.4799,6.3876 0,12.7752 0,12.7752 0,0 -11.4798,6.3871 -22.9597,0 -11.4798,-6.3876 -126.2778,-70.2623 -126.2778,-70.2623 0,0 -8.6477,-4.8114 0,-12.7747 z"
           style="fill:#f4d7d7;stroke:none;stroke-width:0.520524px;stroke-linecap:butt;stroke-linejoin:miter;stroke-opacity:1"
           inkscape:export-filename="/home/me/Projects/fec/logo-design/tela1.png"
           inkscape:export-xdpi="26"
           inkscape:export-ydpi="26" />
        <path
           d="m -1324.5553,-2183.4442 c -3.48,-0.045 -7.4269,0.6408 -11.3731,2.8364 -8.6475,7.9633 0,12.7747 0,12.7747 l 34.4402,19.1628 91.8386,51.0993 34.4391,19.1625 c 11.4798,6.3876 22.9593,0 22.9593,0 0,0 1.895,-1.0544 3.3752,-2.7346 0.2276,-0.258 0.4455,-0.5317 0.645,-0.8183 0.1001,-0.1429 0.1943,-0.2893 0.2848,-0.4392 0.2692,-0.4493 0.4878,-0.9261 0.6277,-1.4263 0.092,-0.3331 0.1504,-0.6769 0.1665,-1.0288 0.028,-0.7043 -0.1144,-1.4426 -0.5003,-2.2029 -0.1923,-0.3801 -0.4459,-0.7652 -0.7675,-1.1545 -0.6431,-0.7789 -1.5605,-1.5739 -2.8199,-2.3714 -2e-4,-2e-4 0,3e-4 0,0 -0.315,-0.198 -0.6509,-0.3994 -1.0096,-0.5989 -3.1305,-1.7416 -20.3618,-11.3289 -34.4351,-19.1593 0,0 0,0 0,0 0,-5e-4 0,0 0,0 -8.3489,-4.6455 -58.0977,-32.3258 -91.8386,-51.0995 -12.6528,-7.0402 -34.4391,-19.1628 -34.4391,-19.1628 0,0 -4.944,-2.7502 -11.5875,-2.8364 z"
           style="fill:#f4d7d7;stroke:none;stroke-width:0.520524px;stroke-linecap:butt;stroke-linejoin:miter;stroke-opacity:1"
           id="path4706-7-7-1-1-5-9-7-9-6-2"
           inkscape:export-filename="/home/me/Projects/fec/logo-design/tela1.png"
           inkscape:export-xdpi="26"
           inkscape:export-ydpi="26" />
        <path
           style="fill:none;stroke:none;stroke-width:0.520524px;stroke-linecap:butt;stroke-linejoin:miter;stroke-opacity:1"
           d="m -3440.8887,-3704.1851 22.9597,-12.7751 688.7898,383.2478 -22.9597,12.7749 z"
           id="path862-7-6"
           inkscape:export-filename="/home/me/Projects/fec/logo-design/tela2.png"
           inkscape:export-xdpi="26"
           inkscape:export-ydpi="26" />
        <path
           id="path852-4-93-5"
           d="m -3587.5011,-3619.8705 -413.2734,229.9485 -68.879,-38.3246 413.2737,-229.9487 z"
           style="fill:#6c5353;stroke:none;stroke-width:0.520524px;stroke-linecap:butt;stroke-linejoin:miter;stroke-opacity:1"
           inkscape:export-filename="/home/me/Projects/fec/logo-design/tela2.png"
           inkscape:export-xdpi="26"
           inkscape:export-ydpi="26" />
        <path
           id="path858-0-1-9"
           d="m -3587.5011,-3619.8705 688.7898,383.2476 -413.2737,229.9485 -688.7895,-383.2476 z"
           style="fill:#483737;stroke:none;stroke-width:0.520524px;stroke-linecap:butt;stroke-linejoin:miter;stroke-opacity:1"
           sodipodi:nodetypes="ccccc"
           inkscape:export-filename="/home/me/Projects/fec/logo-design/tela2.png"
           inkscape:export-xdpi="26"
           inkscape:export-ydpi="26" />
        <path
           id="path4397-9-4"
           style="fill:#ff7f2a;stroke:none;stroke-width:0.520524px;stroke-linecap:butt;stroke-linejoin:miter;stroke-opacity:1"
           d="m -3587.3935,-3603.5446 c -6.6433,0.085 -11.5874,2.8364 -11.5874,2.8364 l -22.9594,12.7752 c 0,0 -11.4796,6.3871 0,12.7747 11.4801,6.3876 321.4346,178.8487 321.4346,178.8487 11.4798,6.3876 321.4356,178.8493 321.4356,178.8493 0,0 11.4799,6.3873 22.9594,0 11.4801,-6.3876 22.9594,-12.775 22.9594,-12.775 0,0 11.4799,-6.3876 0,-12.7752 -11.4798,-6.3871 -309.9545,-172.4614 -321.4343,-178.8487 -11.4801,-6.3874 -309.9561,-172.4614 -321.4359,-178.849 -3.9463,-2.1956 -7.892,-2.8813 -11.372,-2.8364 z"
           inkscape:export-filename="/home/me/Projects/fec/logo-design/tela2.png"
           inkscape:export-xdpi="26"
           inkscape:export-ydpi="26" />
        <path
           style="fill:#e3dbdb;stroke:none;stroke-width:0.520524px;stroke-linecap:butt;stroke-linejoin:miter;stroke-opacity:1"
           d="m -3598.9809,-3587.933 c 11.4798,-6.3876 22.9597,0 22.9597,0 0,0 0,0 11.48,6.3871 11.4799,6.3876 0,12.7752 0,12.7752 0,0 -11.48,6.3874 -22.9599,0 -11.4798,-6.3876 -11.4798,-6.3876 -11.4798,-6.3876 0,0 -11.4793,-6.3876 0,-12.7747 z"
           id="path4401-47-6"
           inkscape:export-filename="/home/me/Projects/fec/logo-design/tela2.png"
           inkscape:export-xdpi="26"
           inkscape:export-ydpi="26" />
        <path
           style="fill:#e3dbdb;stroke:none;stroke-width:0.520524px;stroke-linecap:butt;stroke-linejoin:miter;stroke-opacity:1"
           d="m -3553.0613,-3562.3833 c 0,0 11.4798,-6.3874 22.9599,0 11.4795,6.3876 68.8787,38.3245 80.3582,44.7121 11.4801,6.3876 0,12.7752 0,12.7752 0,0 -11.4795,6.3871 -22.9596,0 -11.4793,-6.3876 -80.3585,-44.7124 -80.3585,-44.7124 0,0 -11.4799,-6.3873 0,-12.7749 z"
           id="path4403-84-9"
           inkscape:export-filename="/home/me/Projects/fec/logo-design/tela2.png"
           inkscape:export-xdpi="26"
           inkscape:export-ydpi="26" />
        <path
           style="fill:#e3dbdb;stroke:none;stroke-width:0.520524px;stroke-linecap:butt;stroke-linejoin:miter;stroke-opacity:1"
           d="m -2956.1104,-3230.2353 c 11.4798,-6.3876 0,-12.7752 0,-12.7752 0,0 -11.4798,-6.3871 -22.9597,0 -11.48,6.3876 0,12.7752 0,12.7752 0,0 11.4799,6.3874 22.9597,0 z"
           id="path4405-5-2"
           inkscape:export-filename="/home/me/Projects/fec/logo-design/tela2.png"
           inkscape:export-xdpi="26"
           inkscape:export-ydpi="26" />
        <path
           id="path4407-0-2"
           style="fill:#ff7f2a;stroke:none;stroke-width:0.520524px;stroke-linecap:butt;stroke-linejoin:miter;stroke-opacity:1"
           d="m -3644.7926,-3571.6071 c -6.6439,0.085 -11.5867,2.8364 -11.5867,2.8364 l -34.4402,19.1623 321.4356,178.8487 22.9594,12.7752 321.4346,178.8487 34.4403,-19.1623 c 0,0 11.4798,-6.3876 0,-12.7749 -11.4799,-6.3873 -309.9558,-172.4614 -321.4354,-178.849 -11.4801,-6.3876 -309.955,-172.4613 -321.4349,-178.8487 -3.946,-2.1959 -7.8933,-2.8815 -11.3727,-2.8364 z"
           inkscape:export-filename="/home/me/Projects/fec/logo-design/tela2.png"
           inkscape:export-xdpi="26"
           inkscape:export-ydpi="26" />
        <path
           id="path4401-6-3-4"
           d="m -3656.3798,-3555.9957 c 11.4799,-6.3876 22.9599,0 22.9599,0 0,0 0,0 11.4796,6.3873 11.4801,6.3873 0,12.7747 0,12.7747 0,0 -11.4796,6.3876 -22.9596,0 -11.4799,-6.3874 -11.4799,-6.3874 -11.4799,-6.3874 0,0 -11.4798,-6.3873 0,-12.7746 z"
           style="fill:#e3dbdb;stroke:none;stroke-width:0.520524px;stroke-linecap:butt;stroke-linejoin:miter;stroke-opacity:1"
           inkscape:export-filename="/home/me/Projects/fec/logo-design/tela2.png"
           inkscape:export-xdpi="26"
           inkscape:export-ydpi="26" />
        <path
           id="path4403-8-6-7"
           d="m -3610.4602,-3530.4461 c 0,0 11.4793,-6.3876 22.9591,0 11.4801,6.3873 68.8792,38.3248 80.3593,44.7124 11.4796,6.3874 0,12.7747 0,12.7747 0,0 -11.4801,6.3876 -22.9596,0 -11.4801,-6.3873 -80.3588,-44.7122 -80.3588,-44.7122 0,0 -11.4801,-6.3876 0,-12.7749 z"
           style="fill:#e3dbdb;stroke:none;stroke-width:0.520524px;stroke-linecap:butt;stroke-linejoin:miter;stroke-opacity:1"
           inkscape:export-filename="/home/me/Projects/fec/logo-design/tela2.png"
           inkscape:export-xdpi="26"
           inkscape:export-ydpi="26" />
        <path
           id="path4405-9-1-7"
           d="m -3013.5098,-3198.2981 c 11.4798,-6.3876 0,-12.7749 0,-12.7749 0,0 -11.4798,-6.3873 -22.9594,0 -11.4801,6.3873 0,12.7749 0,12.7749 0,0 11.4796,6.3876 22.9594,0 z"
           style="fill:#6c5353;stroke:none;stroke-width:0.520524px;stroke-linecap:butt;stroke-linejoin:miter;stroke-opacity:1"
           inkscape:export-filename="/home/me/Projects/fec/logo-design/tela2.png"
           inkscape:export-xdpi="26"
           inkscape:export-ydpi="26" />
        <path
           id="path4456-0-5"
           style="fill:#ff6600;stroke:none;stroke-width:0.520524px;stroke-linecap:butt;stroke-linejoin:miter;stroke-opacity:1"
           d="m -3690.8195,-3549.6084 -45.9188,25.5496 321.4349,178.8493 22.9591,12.7747 321.4356,178.8489 45.9188,-25.5499 -321.4346,-178.8487 -22.9594,-12.7752 z"
           inkscape:export-filename="/home/me/Projects/fec/logo-design/tela2.png"
           inkscape:export-xdpi="26"
           inkscape:export-ydpi="26" />
        <path
           style="fill:#e3dbdb;stroke:none;stroke-width:0.520524px;stroke-linecap:butt;stroke-linejoin:miter;stroke-opacity:1"
           d="m -3059.4288,-3172.7482 c 11.4795,-6.3876 0,-12.7747 0,-12.7747 0,0 -11.4799,-6.3876 -22.9599,0 -11.4796,6.3871 0,12.7747 0,12.7747 0,0 11.48,6.3874 22.9599,0 z"
           id="path4458-6-4"
           inkscape:export-filename="/home/me/Projects/fec/logo-design/tela2.png"
           inkscape:export-xdpi="26"
           inkscape:export-ydpi="26" />
        <path
           style="fill:#e3dbdb;stroke:none;stroke-width:0.520524px;stroke-linecap:butt;stroke-linejoin:miter;stroke-opacity:1"
           d="m -3702.2993,-3530.4461 c 11.4798,-6.3876 22.9596,0 22.9596,0 l 57.3994,31.9372 c 0,0 11.4801,6.3876 0,12.7752 -11.4796,6.3874 -22.9596,0 -22.9596,0 0,0 -45.9196,-25.5499 -57.3994,-31.9375 -11.4799,-6.3876 0,-12.7749 0,-12.7749 z"
           id="path4462-3-8"
           inkscape:export-filename="/home/me/Projects/fec/logo-design/tela2.png"
           inkscape:export-xdpi="26"
           inkscape:export-ydpi="26" />
        <path
           id="path4456-2-2-1"
           style="fill:#ff6600;stroke:none;stroke-width:0.520524px;stroke-linecap:butt;stroke-linejoin:miter;stroke-opacity:1"
           d="m -3736.7383,-3524.0588 -45.9196,25.5499 321.4352,178.849 22.9596,12.7749 321.4346,178.849 45.9198,-25.5499 -321.4356,-178.8489 -22.9591,-12.7747 z"
           inkscape:export-filename="/home/me/Projects/fec/logo-design/tela2.png"
           inkscape:export-xdpi="26"
           inkscape:export-ydpi="26" />
        <path
           id="path4462-6-0-2"
           d="m -3748.2184,-3504.896 c 11.4801,-6.3876 22.9594,0 22.9594,0 l 57.3994,31.937 c 0,0 11.4798,6.3876 0,12.7752 -11.4801,6.3871 -22.9599,0 -22.9599,0 0,0 -45.9188,-25.5499 -57.3989,-31.9375 -11.4798,-6.3876 0,-12.7747 0,-12.7747 z"
           style="fill:#e3dbdb;stroke:none;stroke-width:0.520524px;stroke-linecap:butt;stroke-linejoin:miter;stroke-opacity:1"
           inkscape:export-filename="/home/me/Projects/fec/logo-design/tela2.png"
           inkscape:export-xdpi="26"
           inkscape:export-ydpi="26" />
        <path
           id="path4485-6-8"
           style="fill:#ff2a2a;stroke:none;stroke-width:0.520524px;stroke-linecap:butt;stroke-linejoin:miter;stroke-opacity:1"
           d="m -3828.5772,-3472.959 c 0,0 -22.9601,12.7752 -34.4399,19.1623 -11.4796,6.3876 0,12.7752 0,12.7752 l 321.4358,178.849 321.4347,178.8487 c 0,0 11.4803,6.3873 22.9601,0 11.4798,-6.3874 34.4392,-19.162 34.4392,-19.162 l -321.4358,-178.8493 -22.9592,-12.7749 z"
           inkscape:export-filename="/home/me/Projects/fec/logo-design/tela2.png"
           inkscape:export-xdpi="26"
           inkscape:export-ydpi="26" />
        <path
           id="path4487-1-9"
           style="fill:#ff2a2a;stroke:none;stroke-width:0.520524px;stroke-linecap:butt;stroke-linejoin:miter;stroke-opacity:1"
           d="m -3782.6581,-3498.5089 -45.9191,25.5499 321.4352,178.849 22.9589,12.7749 321.4358,178.8493 45.9188,-25.5502 -321.4346,-178.849 -22.9596,-12.7749 z"
           inkscape:export-filename="/home/me/Projects/fec/logo-design/tela2.png"
           inkscape:export-xdpi="26"
           inkscape:export-ydpi="26" />
        <path
           id="path4458-4-5-3"
           d="m -3151.2674,-3121.6486 c 11.4798,-6.3874 0,-12.775 0,-12.775 0,0 -11.4799,-6.3873 -22.9597,0 -11.4798,6.3876 0,12.775 0,12.775 0,0 11.4798,6.3876 22.9597,0 z"
           style="fill:#e3dbdb;stroke:none;stroke-width:0.520524px;stroke-linecap:butt;stroke-linejoin:miter;stroke-opacity:1"
           inkscape:export-filename="/home/me/Projects/fec/logo-design/tela2.png"
           inkscape:export-xdpi="26"
           inkscape:export-ydpi="26" />
        <path
           id="path4462-9-5-6"
           d="m -3794.1379,-3479.3463 c 11.48,-6.3874 22.9599,0 22.9599,0 l 57.3988,31.9372 c 0,0 11.4799,6.3876 0,12.7749 -11.4798,6.3876 -22.9591,0 -22.9591,0 0,0 -45.9198,-25.5496 -57.3996,-31.9372 -11.4799,-6.3876 0,-12.7749 0,-12.7749 z"
           style="fill:#e3dbdb;stroke:none;stroke-width:0.520524px;stroke-linecap:butt;stroke-linejoin:miter;stroke-opacity:1"
           inkscape:export-filename="/home/me/Projects/fec/logo-design/tela2.png"
           inkscape:export-xdpi="26"
           inkscape:export-ydpi="26" />
        <path
           style="fill:#e3dbdb;stroke:none;stroke-width:0.520524px;stroke-linecap:butt;stroke-linejoin:miter;stroke-opacity:1"
           d="m -3840.0572,-3453.7967 c 11.4798,-6.3871 22.9596,0 22.9596,0 l 57.3994,31.9375 c 0,0 11.4798,6.3873 0,12.7749 -11.4798,6.3876 -22.9599,0 -22.9599,0 0,0 -45.9193,-25.5499 -57.3991,-31.9372 -11.4796,-6.3876 0,-12.7752 0,-12.7752 z"
           id="path4462-6-5-4-8"
           inkscape:export-filename="/home/me/Projects/fec/logo-design/tela2.png"
           inkscape:export-xdpi="26"
           inkscape:export-ydpi="26" />
        <path
           id="path4397-0-7-0"
           style="fill:#ff2a2a;stroke:none;stroke-width:0.520524px;stroke-linecap:butt;stroke-linejoin:miter;stroke-opacity:1"
           d="m -3885.8685,-3437.4706 c -6.6436,0.085 -11.5876,2.8364 -11.5876,2.8364 l -22.9589,12.775 c 0,0 -11.4801,6.3873 0,12.7749 11.4793,6.3876 321.4341,178.849 321.4341,178.849 11.4798,6.3874 321.4356,178.8487 321.4356,178.8487 0,0 11.4796,6.3876 22.9597,0 l 22.9591,-12.7747 c 0,0 11.4799,-6.3876 0,-12.7752 -11.4798,-6.3873 -309.9548,-172.4611 -321.4346,-178.8487 -11.4798,-6.3873 -309.9555,-172.4614 -321.4356,-178.849 -3.946,-2.1956 -7.8918,-2.8815 -11.3718,-2.8364 z"
           inkscape:export-filename="/home/me/Projects/fec/logo-design/tela2.png"
           inkscape:export-xdpi="26"
           inkscape:export-ydpi="26" />
        <path
           id="path4401-4-6-2"
           d="m -3897.4561,-3421.8592 c 11.4798,-6.3874 22.9594,0 22.9594,0 0,0 0,0 11.4801,6.3873 11.4798,6.3876 0,12.7752 0,12.7752 0,0 -11.4801,6.3871 -22.9597,0 -11.4798,-6.3876 -11.4798,-6.3876 -11.4798,-6.3876 0,0 -11.4798,-6.3876 0,-12.7749 z"
           style="fill:#e3dbdb;stroke:none;stroke-width:0.520524px;stroke-linecap:butt;stroke-linejoin:miter;stroke-opacity:1"
           inkscape:export-filename="/home/me/Projects/fec/logo-design/tela2.png"
           inkscape:export-xdpi="26"
           inkscape:export-ydpi="26" />
        <path
           id="path4403-87-5-1"
           d="m -3851.5368,-3396.3096 c 0,0 11.4796,-6.3871 22.9594,0 11.4798,6.3876 68.8792,38.3251 80.359,44.7125 11.4801,6.3876 0,12.7749 0,12.7749 0,0 -11.4798,6.3874 -22.9596,0 -11.4801,-6.3873 -80.3588,-44.7122 -80.3588,-44.7122 0,0 -11.4798,-6.3876 0,-12.7752 z"
           style="fill:#e3dbdb;stroke:none;stroke-width:0.520524px;stroke-linecap:butt;stroke-linejoin:miter;stroke-opacity:1"
           inkscape:export-filename="/home/me/Projects/fec/logo-design/tela2.png"
           inkscape:export-xdpi="26"
           inkscape:export-ydpi="26" />
        <path
           id="path4405-1-6-0"
           d="m -3254.5859,-3064.1613 c 11.4801,-6.3876 0,-12.7752 0,-12.7752 0,0 -11.4798,-6.3873 -22.9596,0 -11.4798,6.3876 0,12.7752 0,12.7752 0,0 11.4798,6.3876 22.9596,0 z"
           style="fill:#e3dbdb;stroke:none;stroke-width:0.520524px;stroke-linecap:butt;stroke-linejoin:miter;stroke-opacity:1"
           inkscape:export-filename="/home/me/Projects/fec/logo-design/tela2.png"
           inkscape:export-xdpi="26"
           inkscape:export-ydpi="26" />
      </g>
      <path
         inkscape:export-ydpi="192"
         inkscape:export-xdpi="192"
         d="m -3598.3359,-20932.5 -181.8653,15 -272.7968,127.5 v 89.998 0 c 0.016,0 77.9487,44.995 155.8828,0 l 77.9433,-45 c 0,0 77.9426,45 155.8848,90 77.9424,45 155.8848,0 155.8848,0 v -90 c 77.9422,45 155.8847,0 155.8847,0 v -90 z"
         style="fill:#3e0000;fill-opacity:1;stroke:none;stroke-width:0.999999px;stroke-linecap:butt;stroke-linejoin:miter;stroke-opacity:1"
         id="path832-3"
         transform="scale(0.26458333)" />
      <path
         inkscape:export-ydpi="192"
         inkscape:export-xdpi="192"
         transform="scale(0.26458333)"
         d="m -3283.125,-20711.98 -99.7617,49.066 17.1094,21.664 c -5.478,2.17 -11.0773,4.55 -16.7793,7.107 l -37.3516,-16.095 -76.416,70.504 7.8789,3.789 -18.957,10.945 c -10.7489,6.206 -20.0069,13.272 -27.7911,20.953 l -30.7421,-21.098 0.037,90.274 0.041,0.02 c 0.057,33.701 19.5409,67.385 58.4551,89.852 l 155.8847,90 c 0,0 37.0867,-21.418 34.5039,-49.477 l 0.07,-85.814 -38.9453,1.492 -3.9883,-39.969 9.1836,-5.755 c 29.122,16.813 38.5588,22.261 77.1172,44.523 77.9424,45 155.8848,0 155.8848,0 v -90 c 77.9422,45 155.8848,0 155.8848,0 v -90 l -203.1875,-57.721 z m 14.668,127.009 c 0.095,0 0.188,0 0.2832,0 l 44.3906,7.362 c 1.1192,0.367 2.2403,0.751 3.3633,1.15 l -1.666,11.471 z"
         style="fill:#3e0000;fill-opacity:1;stroke:none;stroke-width:0.999999px;stroke-linecap:butt;stroke-linejoin:miter;stroke-opacity:1"
         id="path854-7" />
      <path
         inkscape:export-ydpi="192"
         inkscape:export-xdpi="192"
         sodipodi:nodetypes="sscssccscsscsss"
         id="path854"
         d="m -907.37811,-5476.8749 c 41.24447,-23.8125 61.8667,-11.9063 82.48891,0 20.62223,11.9062 41.24447,23.8125 41.24447,23.8125 0,0 -20.62224,11.9062 -41.24447,0 l -20.62221,-11.9063 c -20.62223,-11.9062 -41.24446,0 -41.24446,0 l 61.86667,35.7188 c 0,0 -20.62221,11.9062 -41.24444,0 -20.62223,-11.9063 -41.24447,-23.8125 -41.24447,-23.8125 0,0 -20.62223,11.9062 0,23.8125 l 20.62224,11.9062 c 20.62223,11.9063 0,23.8125 0,23.8125 l -41.24447,-23.8125 c -20.62228,-11.9063 -20.62223,-35.7187 0,-47.625 z"
         style="fill:#ff5555;fill-opacity:1;stroke:none;stroke-width:0.264583px;stroke-linecap:butt;stroke-linejoin:miter;stroke-opacity:1" />
      <path
         inkscape:export-ydpi="192"
         inkscape:export-xdpi="192"
         id="path832-5"
         d="m -1010.4892,-5536.4062 c 41.24439,-23.8125 61.86663,-11.9062 82.48886,0 20.62223,11.9063 41.24447,23.8125 41.24447,23.8125 0,0 -20.62224,11.9063 -41.24447,0 -20.62223,-11.9062 0,0 -20.62223,-11.9062 -20.62224,-11.9063 -41.24444,0 -41.24444,0 l 61.86667,35.7187 c 0,0 -20.62223,11.9063 -41.24447,0 -20.6222,-11.9062 -41.24439,-23.8125 -41.24439,-23.8125 0,0 0,0 -20.6223,11.9063 -20.6222,11.9062 -41.2444,0 -41.2444,0 z"
         style="fill:#ff5555;fill-opacity:1;stroke:none;stroke-width:0.264583px;stroke-linecap:butt;stroke-linejoin:miter;stroke-opacity:1" />
      <path
         inkscape:export-ydpi="192"
         inkscape:export-xdpi="192"
         sodipodi:nodetypes="ccscccccscccccccsccsscccc"
         transform="scale(0.26458333)"
         d="m -2883.8652,-20480.777 -168.0552,81.317 -65.771,59.46 c -10.191,9.213 -21.969,14.791 -30.2344,23.438 l -4.373,-18.157 -23.8535,-5.424 v 90.623 h 0.012 c 0.1833,33.59 19.6623,67.127 58.4492,89.521 77.9422,45 155.8848,90 155.8848,90 0,0 32.5425,-18.798 34.5332,-44.242 l 0.047,0.03 v -0.709 c 0.064,-1.127 0.063,-2.268 0,-3.42 l 0.016,-87.01 -60.536,12.796 -48.3457,-18.592 c -84.0027,-32.304 -3.6574,-83.854 -3.6574,-83.854 l 77.9434,-45 c 0,0 77.9424,-45 155.8847,0 l 77.9414,45 c 77.9423,45 155.8848,0 155.8848,0 v -90 l -148.4248,-20.005 z"
         style="fill:#3b0000;fill-opacity:1;stroke:none;stroke-width:0.999999px;stroke-linecap:butt;stroke-linejoin:miter;stroke-opacity:1"
         id="path856-5" />
      <path
         inkscape:export-ydpi="192"
         inkscape:export-xdpi="192"
         id="path856"
         d="m -804.26697,-5417.3437 c 41.24447,-23.8125 61.8667,-11.9062 82.48894,0 20.62223,11.9063 41.24446,23.8125 41.24446,23.8125 0,0 -20.62223,11.9063 -41.24446,0 -20.62224,-11.9062 0,0 -20.62224,-11.9062 -20.62223,-11.9063 -41.24446,0 -41.24446,0 l -20.62224,11.9062 c 0,0 -20.62223,11.9063 0,23.8125 20.62224,11.9063 0,0 20.62224,11.9063 20.62223,11.9062 0,23.8125 0,23.8125 0,0 -20.62224,-11.9063 -41.24447,-23.8125 -20.62221,-11.9063 -20.62221,-35.7188 0,-47.625 20.62223,-11.9063 20.62223,-11.9063 20.62223,-11.9063 z"
         style="opacity:1;fill:#ff5555;fill-opacity:1;stroke:none;stroke-width:0.264583px;stroke-linecap:butt;stroke-linejoin:miter;stroke-opacity:1;filter:url(#filter2963)" />
      <path
         inkscape:export-ydpi="192"
         inkscape:export-xdpi="192"
         id="path852"
         d="M -1010.4892,-5536.4062 Z"
         style="fill:none;stroke:none;stroke-width:0.264583px;stroke-linecap:butt;stroke-linejoin:miter;stroke-opacity:1" />
      <path
         inkscape:export-ydpi="192"
         inkscape:export-xdpi="192"
         style="fill:none;stroke:none;stroke-width:0.264583px;stroke-linecap:butt;stroke-linejoin:miter;stroke-opacity:1"
         d="M -1010.4893,-5512.5938 Z"
         id="path852-6" />
      <path
         id="rect1300-3"
         style="fill:url(#linearGradient1432);fill-opacity:1;stroke-width:0.264583"
         d="m -761.52979,-5431.0922 c -11.6078,0.014 -25.33743,3.7026 -42.73744,13.7485 l -20.62199,11.9063 c -20.62221,11.9062 -20.62221,35.7187 0,47.625 20.62218,11.9062 41.24449,23.8125 41.24449,23.8125 0,0 20.62221,-11.9063 0,-23.8125 l -20.6225,-11.9063 c -20.6222,-11.9062 0,-23.8125 0,-23.8125 l 20.6225,-11.9062 c 0,0 20.62232,-11.9063 41.24452,0 l 20.622,11.9062 c 20.6222,11.9063 41.24452,0 41.24452,0 0,0 -20.62232,-11.9062 -41.24452,-23.8125 -11.92226,-6.8832 -23.8446,-13.767 -39.75158,-13.7485 z"
         inkscape:export-xdpi="192"
         inkscape:export-ydpi="192" />
      <path
         id="rect1300-3-0"
         style="fill:url(#linearGradient1349-1);fill-opacity:1;stroke-width:0.264583"
         d="m -864.64065,-5490.6234 c -11.6078,0.014 -25.33748,3.7026 -42.73746,13.7485 l -20.62199,11.9063 c -20.62218,11.9063 -20.62218,35.7187 0,47.625 l 41.24452,23.8125 c 0,0 20.6222,-11.9062 0,-23.8125 l -20.62253,-11.9063 c -20.62228,-11.9063 0,-23.8125 0,-23.8125 0,0 20.62232,11.9062 41.24452,23.8125 20.62231,11.9062 41.24452,0 41.24452,0 l -61.86651,-35.7187 c 0,0 20.6222,-11.9062 41.24452,0 l 20.62199,11.9062 c 20.62218,11.9062 41.24449,0 41.24449,0 0,0 -20.62231,-11.9063 -41.24449,-23.8125 -11.92223,-6.8833 -23.84462,-13.767 -39.75158,-13.7485 z"
         inkscape:export-xdpi="192"
         inkscape:export-ydpi="192" />
      <path
         id="rect1300-3-9"
         style="fill:url(#linearGradient1349-5);fill-opacity:1;stroke-width:0.264583"
         d="m -967.75187,-5550.1548 c -11.60777,0.013 -25.33745,3.7026 -42.73743,13.7485 l -61.8665,35.7187 c 0,0 20.6218,11.9062 41.244,0 l 20.6225,-11.9062 c 0,0 20.62232,11.9063 41.24452,23.8125 20.62229,11.9063 41.24449,0 41.24449,0 l -61.86701,-35.7188 c 0,0 20.6222,-11.9063 41.24452,0 l 20.62249,11.9063 c 20.62221,11.9063 41.24452,0 41.24452,0 0,0 -20.62231,-11.9062 -41.24452,-23.8125 -11.9222,-6.8833 -23.84459,-13.767 -39.75158,-13.7485 z"
         inkscape:export-xdpi="192"
         inkscape:export-ydpi="192" />
    </g>
  </g>
</svg>
